<?xml version="1.0" encoding="utf-8"?>
<!-- Generator: Adobe Illustrator 24.0.2, SVG Export Plug-In . SVG Version: 6.00 Build 0)  -->
<svg version="1.1" id="Capa_1" xmlns="http://www.w3.org/2000/svg" xmlns:xlink="http://www.w3.org/1999/xlink" x="0px" y="0px"
	 viewBox="0 0 500 500" style="enable-background:new 0 0 500 500;" xml:space="preserve">
<g>
	<g>
		<path d="M311.6,68.7l-17.5-4.8c-0.3-0.1-0.6-0.2-0.9-0.2c-0.5,0-0.9,0.1-1.5,0.5c-1,0.6-1.6,1.3-2,2.5l-104,359.9
			c-0.4,1.2-0.3,2,0.2,2.9c0.6,1,1.3,1.6,2.5,2l17.4,4.8c0.7,0.2,1.4,0.3,2.4-0.3c1-0.6,1.6-1.3,2-2.5l104-359.9
			c0.4-1.2,0.3-2-0.2-2.9C313.5,69.6,312.7,69,311.6,68.7z"/>
		<path d="M152.1,366c0-1-0.4-1.9-1.3-2.8L37.6,250l113.2-113.2c0.9-0.9,1.3-1.8,1.3-2.8c0-1-0.4-1.9-1.3-2.8l-13.9-13.9
			c-0.9-0.9-1.8-1.3-2.8-1.3s-1.9,0.4-2.8,1.3L1.3,247.2C0.4,248.1,0,249,0,250c0,1,0.4,1.9,1.3,2.8l129.9,129.9
			c0.9,0.9,1.8,1.3,2.8,1.3c1,0,1.9-0.4,2.8-1.3l13.9-13.9C151.7,367.9,152.1,367,152.1,366z"/>
		<path d="M500,250c0-1-0.4-1.9-1.3-2.8L368.8,117.3c-0.9-0.9-1.8-1.3-2.8-1.3c-1,0-1.9,0.4-2.8,1.3l-13.9,13.9
			c-0.9,0.9-1.3,1.8-1.3,2.8c0,1,0.4,1.9,1.3,2.8L462.4,250L349.2,363.2c-0.9,0.9-1.3,1.8-1.3,2.8c0,1.1,0.4,1.9,1.3,2.8l13.9,13.9
			c0.9,0.9,1.8,1.3,2.8,1.3c1,0,1.9-0.4,2.8-1.3l129.9-129.9C499.6,251.9,500,251,500,250z"/>
	</g>
</g>
</svg>
