<?xml version="1.0" encoding="utf-8"?>
<!-- Generator: Adobe Illustrator 24.0.2, SVG Export Plug-In . SVG Version: 6.00 Build 0)  -->
<svg version="1.1" id="Capa_1" xmlns="http://www.w3.org/2000/svg" xmlns:xlink="http://www.w3.org/1999/xlink" x="0px" y="0px"
	 viewBox="0 0 500 500" style="enable-background:new 0 0 500 500;" xml:space="preserve">
<path d="M498.5,103.5c-0.1-0.3-0.2-0.6-0.3-0.9l0-0.1c-0.2-0.5-0.5-1.2-0.9-1.8c-0.2-0.3-0.4-0.6-0.6-0.9c-0.4-0.5-0.8-1-1.3-1.4
	c-0.3-0.3-0.6-0.5-0.8-0.7c-0.2-0.2-0.3-0.3-0.6-0.5c-0.4-0.3-0.8-0.4-1.1-0.6c0,0-0.1,0-0.1-0.1c-0.2-0.1-0.4-0.3-0.8-0.4
	L254.3-2.1c-2.8-1.1-5.8-1.1-8.6,0L8,96.2c-0.3,0.1-0.5,0.3-0.7,0.4l-0.1,0C6.9,96.8,6.5,97,6,97.3c-0.2,0.1-0.4,0.3-0.5,0.4
	c-0.2,0.2-0.5,0.4-0.7,0.6l-0.1,0.1c-0.5,0.4-0.9,0.9-1.3,1.4c-0.2,0.3-0.5,0.6-0.7,0.9c-0.4,0.7-0.7,1.3-0.9,1.8l-0.1,0.1
	c-0.1,0.3-0.2,0.5-0.3,0.9c-0.3,1.1-0.4,2.1-0.4,3v286.9c0,4.6,2.7,8.6,6.9,10.3l237.8,98.4c0.2,0.1,0.4,0.1,0.6,0.2
	c1.3,0.4,2.4,0.6,3.6,0.6c1.1,0,2.3-0.2,3.6-0.6c0.2,0,0.4-0.1,0.7-0.2L492,403.8c4.2-1.7,6.9-5.8,6.9-10.3V106.6
	C498.9,105.6,498.7,104.6,498.5,103.5z M238.8,212.4V475L23.5,386V123.3L238.8,212.4z M458.4,106.6L250,192.8L41.6,106.6L250,20.3
	L458.4,106.6z M476.5,123.3V386l-215.3,89.1V212.4L476.5,123.3z"/>
</svg>
