<?xml version="1.0" encoding="utf-8"?>
<!-- Generator: Adobe Illustrator 24.0.2, SVG Export Plug-In . SVG Version: 6.00 Build 0)  -->
<svg version="1.1" id="Capa_1" xmlns="http://www.w3.org/2000/svg" xmlns:xlink="http://www.w3.org/1999/xlink" x="0px" y="0px"
	 viewBox="0 0 500 500" style="enable-background:new 0 0 500 500;" xml:space="preserve">
<path d="M426.4,117.9c0-0.3-0.1-0.5-0.1-0.8c0-0.1,0-0.2,0-0.3c-0.1-0.3-0.1-0.6-0.2-1c0,0,0-0.1,0-0.1c-0.1-0.3-0.2-0.6-0.3-0.9
	c0,0,0-0.1,0-0.1c-0.1-0.3-0.3-0.6-0.4-0.9c0,0,0-0.1-0.1-0.1c-0.1-0.3-0.3-0.5-0.4-0.7c0-0.1-0.1-0.1-0.1-0.2
	c-0.1-0.2-0.3-0.4-0.5-0.6c-0.1-0.1-0.1-0.2-0.2-0.2c-0.2-0.2-0.4-0.5-0.6-0.7c0,0-0.1-0.1-0.1-0.1L315.5,3.3c0,0-0.1-0.1-0.1-0.1
	c-0.2-0.2-0.5-0.5-0.7-0.7c-0.1-0.1-0.2-0.1-0.2-0.2c-0.2-0.2-0.4-0.3-0.6-0.5c-0.1,0-0.1-0.1-0.2-0.1c-0.2-0.2-0.5-0.3-0.7-0.4
	c0,0-0.1,0-0.2-0.1c-0.3-0.1-0.6-0.3-0.8-0.4c0,0-0.1,0-0.1,0c-0.3-0.1-0.6-0.2-0.9-0.3c0,0-0.1,0-0.1,0c-0.3-0.1-0.6-0.2-1-0.2
	c-0.1,0-0.2,0-0.3,0c-0.3,0-0.5-0.1-0.8-0.1c-0.4,0-0.8-0.1-1.1-0.1H84.8c-6.2,0-11.3,5.1-11.3,11.3v477.4c0,6.2,5.1,11.3,11.3,11.3
	h330.4c6.2,0,11.3-5.1,11.3-11.3V119C426.5,118.6,426.5,118.3,426.4,117.9z M318.8,38.6l69.1,69.1h-69.1V38.6z M96.1,477.4V22.6
	h200.1V119c0,6.2,5.1,11.3,11.3,11.3h96.4v347.1H96.1z"/>
</svg>
