<?xml version="1.0" encoding="utf-8"?>
<!-- Generator: Adobe Illustrator 24.0.2, SVG Export Plug-In . SVG Version: 6.00 Build 0)  -->
<svg version="1.1" id="Capa_1" xmlns="http://www.w3.org/2000/svg" xmlns:xlink="http://www.w3.org/1999/xlink" x="0px" y="0px"
	 viewBox="0 0 128 128" style="enable-background:new 0 0 128 128;" xml:space="preserve">
<style type="text/css">
	.st0{fill:#1572B6;}
</style>
<path class="st0" d="M8.2,0.7l10.2,113.9l45.6,12.6l45.7-12.7L119.8,0.7C119.8,0.7,8.2,0.7,8.2,0.7z M95.3,64.3l-3,27.6l0,2.4
	L64,102.1v0l0,0l-28.6-7.8l-1.9-21.8h14l1,11L64,87.6l0,0v0l15.6-4.4l1.6-18.3H48.6l-0.3-3l-0.6-7.1l-0.3-3.8h35.1l1.3-13.8H30.3
	L30,34l-0.6-7.6l-0.3-4.3h70l-0.3,4.2L95.3,64.3"/>
</svg>
