<?xml version="1.0" encoding="utf-8"?>
<!-- Generator: Adobe Illustrator 24.0.2, SVG Export Plug-In . SVG Version: 6.00 Build 0)  -->
<svg version="1.1" id="Capa_1" xmlns="http://www.w3.org/2000/svg" xmlns:xlink="http://www.w3.org/1999/xlink" x="0px" y="0px"
	 viewBox="0 0 128 128" style="enable-background:new 0 0 128 128;" xml:space="preserve">
<style type="text/css">
	.st0{fill:#E44D26;}
</style>
<path class="st0" d="M7.5,0.7L17.8,115l46.1,12.3l46.3-12.1L120.5,0.7H7.5z M99.1,26.7l-0.6,7.4l-0.3,3.4H44.1l1.3,15.3h51.5
	l-0.3,2.8l-3.3,36.7L93,94.5l-29,7.8v0l0,0l-29-7.5l-2-21.7h14.2l1,10.8l15.7,4l0-0.3v0l15.8-3.4l1.6-17.4h-49l-3.5-39.2l-0.3-4
	h70.8L99.1,26.7L99.1,26.7z"/>
</svg>
