<?xml version="1.0" encoding="utf-8"?>
<!-- Generator: Adobe Illustrator 24.0.2, SVG Export Plug-In . SVG Version: 6.00 Build 0)  -->
<svg version="1.1" id="Capa_1" xmlns="http://www.w3.org/2000/svg" xmlns:xlink="http://www.w3.org/1999/xlink" x="0px" y="0px"
	 viewBox="0 0 128 128" style="enable-background:new 0 0 128 128;" xml:space="preserve">
<style type="text/css">
	.st0{fill:#F2C085;}
	.st1{fill:#E3AD76;}
	.st2{fill:#EDB579;}
	.st3{fill:#AE6838;}
	.st4{fill:#BF7642;}
	.st5{fill:#9F562B;}
	.st6{fill:#934B20;}
	.st7{fill:#924B21;}
	.st8{fill:#C88956;}
	.st9{fill:#AA6132;}
	.st10{fill:#DE9C64;}
	.st11{fill:#844018;}
	.st12{fill:#854119;}
	.st13{fill:#6D3413;}
	.st14{fill:#BF9065;}
	.st15{fill:#E0AE78;}
	.st16{fill:#D1A270;}
	.st17{fill:#CD9D6B;}
	.st18{fill:#CB9B6A;}
	.st19{fill:#EBC192;}
	.st20{fill:#CE9F6E;}
	.st21{fill:#AE8357;}
	.st22{fill:#8E643A;}
	.st23{fill:#996C41;}
	.st24{fill:#45260A;}
	.st25{fill:#B78B60;}
	.st26{fill:#341805;}
	.st27{fill:#D5A675;}
	.st28{fill:#EDEDED;}
	.st29{fill:#AE7F53;}
	.st30{fill:#A8794B;}
	.st31{fill:#90683E;}
	.st32{fill:#865E35;}
	.st33{fill:#5A3614;}
	.st34{fill:#B4895E;}
	.st35{fill:#95693E;}
	.st36{fill:#C19365;}
	.st37{fill:#A57B52;}
	.st38{fill:#B0845A;}
	.st39{fill:#B5895F;}
	.st40{fill:#BD9064;}
	.st41{fill:#BB8E62;}
	.st42{fill:#5A3513;}
	.st43{fill:#D9A977;}
	.st44{fill:#CFA171;}
	.st45{fill:#D0A170;}
	.st46{fill:#D6A674;}
	.st47{fill:#4B2910;}
	.st48{fill:#583313;}
	.st49{fill:#7D562F;}
	.st50{fill:#746559;}
	.st51{fill:#533111;}
	.st52{fill:#573512;}
	.st53{fill:#956F4B;}
	.st54{fill:#5C4E42;}
	.st55{fill:#2F1F0E;}
	.st56{fill:#261205;}
	.st57{fill:#442B1A;}
	.st58{fill:#36200F;}
	.st59{fill:#30190B;}
	.st60{fill:#442915;}
	.st61{fill:#351D0C;}
	.st62{fill:#2E1B0B;}
	.st63{fill:#321E0D;}
	.st64{fill:#826A53;}
	.st65{fill:#1E0500;}
	.st66{fill:#391E0D;}
	.st67{fill:#342110;}
	.st68{fill:#311E0D;}
	.st69{fill:#352312;}
	.st70{fill:#412814;}
	.st71{fill:#38200C;}
	.st72{fill:#38220D;}
	.st73{fill:#825F3D;}
	.st74{fill:#745435;}
	.st75{fill:#492E13;}
	.st76{fill:#291204;}
	.st77{fill:#3C1F0F;}
	.st78{fill:#311507;}
	.st79{fill:#392514;}
	.st80{fill:#694927;}
	.st81{fill:#3C2916;}
</style>
<g>
	<g>
		<path class="st0" d="M44.95,16.03c3.07,4.6,6.15,9.21,9.22,13.81c-0.06,0.49,0.33,0.77,0.52,1.15c0.31,0.65,0.15,1.12-0.48,1.42
			c-0.49,0.23-1.02,0.51-1.54,0.42c-1.05-0.18-2.08,0.15-3.11,0c-0.33-0.05-0.64,0.03-0.94,0.17c-0.23,0.11-0.51,0.29-0.71,0.17
			c-1.12-0.68-2.27-0.14-3.19,0.24c-1.26,0.52-2.37,0.72-3.64,0.3c-0.36-0.12-0.57,0.21-0.78,0.46c-0.49,0.59-1.15,0.79-1.84,0.55
			c-0.62-0.21-1.22-0.26-1.76,0.06c-1.13,0.66-2.3-0.04-3.44,0.14c-0.36,0.06-0.72,0.07-0.99,0.33c-0.44,0.41-0.9,0.55-1.47,0.25
			c-0.19-0.1-0.48-0.15-0.61,0.02c-0.65,0.8-1.76,0.76-2.52,1.52c-0.49,0.49-1.41,1.55-2.57,0.68c-0.29-0.22-0.84-0.01-1.13,0.16
			c-1.42,0.84-3.18,0.53-4.6,1.41c-0.47,0.29-0.89,0.51-1.14,1.04c-0.57,1.2-0.96,1.37-2.27,1.08c-0.26-0.06-0.5-0.1-0.67,0.15
			c-0.18,0.27-0.08,0.54,0.02,0.82c0.19,0.54,0.89,0.91,0.55,1.62c-0.65,0.01-1.15-0.22-1.52-0.8c-3.31-5.16-6.61-10.32-9.98-15.44
			c-0.6-0.92-0.36-1.1,0.57-1.34c11.6-2.99,23.18-6.02,34.78-9.03c1.69-0.44,3.4-0.76,5.04-1.39C44.8,16.03,44.87,16.03,44.95,16.03
			z"/>
		<path class="st1" d="M60.45,36.84c1.91-2.82,3.8-5.64,5.72-8.45c2.06-3.02,4.17-6.01,6.22-9.04c0.4-0.59,0.76-0.75,1.49-0.63
			c7.78,1.36,15.58,2.67,23.37,4c6.8,1.17,13.6,2.36,20.39,3.53c0.74,0.13,1.48,0.26,2.23,0.34c0.59,0.06,0.78,0.27,0.44,0.82
			c-1.67,2.76-3.34,5.52-5,8.29c-0.22,0.37-0.57,0.53-0.93,0.68c-6.69,2.83-13.39,5.66-20.08,8.49c-2.8-0.44-5.57-1.02-8.33-1.66
			c-5.17-1.21-10.38-2.2-15.54-3.4c-3-0.7-6.03-1.31-9.02-2.04C60.95,37.67,60.2,37.72,60.45,36.84z"/>
		<path class="st2" d="M15.85,44.02c-0.06-0.49-0.4-0.82-0.65-1.21c-0.34-0.53-0.7-1.13,0.02-1.7c0.25-0.2,0.42-0.29,0.75-0.09
			c0.94,0.57,1.7,0.31,2-0.72c0.22-0.76,0.63-1.04,1.37-1.27c0.72-0.22,1.39-0.7,2.16-0.74c1.3-0.07,2.4-0.7,3.59-1.09
			c0.06-0.02,0.19-0.03,0.2,0c0.8,1.51,1.4-0.72,2.14-0.11c0.08-0.1,0.19-0.2,0.25-0.32c0.04-0.09,0.03-0.21,0.04-0.32
			c0.02-0.2,0.17-0.42,0.32-0.35c1.24,0.54,1.71-1.69,3.03-0.83c0.14,0.09,0.34,0.25,0.46,0.21c0.53-0.2,0.72-1,1.39-0.89
			c0.59,0.1,1.13,0.29,1.51-0.48c0.79,1.78,1.72,0.19,2.56,0.24c0.39,0.02,0.78-0.21,1.27,0.02c0.78,0.38,1.54,0.31,1.97-0.61
			c0.48-1,1.26-0.31,1.76-0.18c0.78,0.21,1.4,0.56,1.91-0.38c0.13-0.23,0.46-0.17,0.71-0.16c0.63,0.03,1.21-0.1,1.74-0.43
			c0.09-0.06,0.24-0.18,0.27-0.16c0.99,0.8,2.03,0.12,3.03,0.08c1.33-0.06,2.69,0.22,3.99-0.19c1.17-0.37,1.27-0.64,0.67-1.67
			c-0.16-0.27-0.45-0.5-0.12-0.84c1.67,2.51,3.33,5.01,5,7.52c-0.07,0.73-0.68,0.88-1.2,1.08c-2.35,0.89-4.73,1.69-7.1,2.51
			c-6.3,2.19-12.6,4.41-18.9,6.59c-0.41,0.14-0.85,0.14-1.24,0.34C25.76,46.65,20.78,45.44,15.85,44.02z"/>
		<path class="st3" d="M92.79,45.53c-1.8,0.64-2.87,2.2-4.23,3.38c-1.64,1.42-3.1,3.04-4.83,4.36c-1.22,0.34-2.35-0.2-3.46-0.48
			c-3.43-0.85-6.73-2.07-9.93-3.62c-2.35-1.14-4.59-2.35-6.43-4.2c-1.63-1.64-3.09-3.4-3.61-5.75c-0.04-0.17-0.13-0.33-0.26-0.47
			c-0.08-0.07-0.15-0.15-0.21-0.23c-0.05-0.1-0.06-0.2-0.02-0.3c0.08-0.21,0.16-0.42,0.24-0.63c2.93,1.2,6.08,1.53,9.13,2.24
			c7.43,1.72,14.9,3.3,22.36,4.93C92.02,44.86,92.67,44.79,92.79,45.53z"/>
		<path class="st4" d="M59.81,38.22c0,0.07,0,0.13,0,0.2c-0.01,0.04-0.03,0.08-0.04,0.13c-0.04,0.08-0.09,0.15-0.14,0.23
			c-0.18,0.27-0.23,0.6-0.35,0.9c-1.29,3.64-3.26,6.91-5.47,10.04c-0.83,1.18-1.61,2.46-2.82,3.34c-5.45-1.38-10.9-2.76-16.34-4.15
			c-0.89-0.23-1.78-0.48-2.67-0.72c0.03-0.64,0.61-0.63,1-0.77c5.16-1.84,10.34-3.66,15.51-5.47c2.81-0.98,5.6-2.01,8.42-2.95
			c0.88-0.29,1.65-0.8,2.47-1.2C59.51,37.95,59.52,38.23,59.81,38.22z"/>
		<path class="st5" d="M60.04,38.44c0.51,0.03,0.51,0.49,0.58,0.79c0.65,2.94,2.7,4.88,4.82,6.75c2.28,2.01,5.17,2.96,7.83,4.26
			c1.05,0.51,2.23,1.08,3.49,1.15c0.89,0.05,1.48,0.83,2.45,0.9c1.52,0.12,3.01,0.63,4.52,0.97c-2.52,2.51-5.09,4.97-7.76,7.32
			c-1.33,1.01-2.41,0.57-3.45-0.51c-0.49-0.51-1.16-0.83-1.75-1.24c-3.61-2.5-6.47-5.71-8.77-9.42c-1.11-1.79-1.25-3.86-1.58-5.87
			c-0.23-1.4-0.21-2.82-0.58-4.2C59.76,39.02,59.78,38.7,60.04,38.44z"/>
		<path class="st6" d="M60.04,38.44c0.74,3.57,0.37,7.38,2.15,10.71c1.11,2.07,2.56,3.93,4.29,5.56c0.96,0.9,1.89,1.84,2.75,2.85
			c0.71,0.82,1.9,1.05,2.76,1.75c0.26,0.22,0.58,0.4,0.83,0.64c1.19,1.15,1.34,1.18,2.86,0.54c0.07-0.03,0.19,0.06,0.28,0.09
			c-1.13,1.07-2.26,2.14-3.38,3.22c-0.69,0.66-1.51,1.22-1.83,2.25c-0.28-1.05-1.1-1.48-1.87-1.97c-1.52-0.99-3.03-2.01-4.55-3.01
			c-2.67-2.39-3.37-5.6-3.76-8.96c-0.33-2.87-0.62-5.74-0.8-8.62c-0.11-1.16-0.08-2.34-0.25-3.5c-0.08-0.52-0.08-1.07,0.28-1.53
			c0,0-0.01-0.04-0.01-0.04C59.89,38.42,59.96,38.43,60.04,38.44z"/>
		<path class="st7" d="M59.17,39.51c0.02-0.41,0.06-0.8,0.44-1.06c-0.05,1.98,0.24,3.96,0.02,5.95c-0.04,0.21-0.15,0.41-0.14,0.63
			c0.16,2.38-0.43,4.71-0.43,7.07c0,1.09-0.28,2.13-0.5,3.18c-0.13,0.63-0.47,1.12-1.14,1.3c-1.06-0.68-2.13-1.36-3.19-2.05
			c0.3-1.14,0.83-2.19,1.29-3.26c0.75-1.75,1.29-3.57,1.94-5.35C58.23,43.85,58.39,41.6,59.17,39.51z"/>
		<path class="st8" d="M92.79,45.53c-1.17-0.68-2.51-0.73-3.77-1.02c-5.38-1.22-10.78-2.37-16.17-3.55
			c-3.82-0.84-7.64-1.7-11.48-2.48c-0.63-0.13-1.04-0.35-1.32-0.89c0.03-0.3,0.2-0.53,0.4-0.75c0.01,0.66,0.59,0.56,0.95,0.64
			c4.86,1.12,9.72,2.23,14.6,3.29c5.77,1.26,11.56,2.46,17.34,3.68c0.36,0.08,0.7,0.13,0.96,0.42
			C93.8,45.09,93.29,45.31,92.79,45.53z"/>
		<path class="st9" d="M59.17,39.51c-0.37,2.36-0.76,4.72-1.57,6.97c-0.8,2.22-1.69,4.4-2.48,6.61c-0.2,0.56-0.54,1-0.89,1.45
			c-1.03-0.61-2.03-1.29-3.25-1.5c0.89-1.19,1.83-2.34,2.66-3.57c2.01-2.95,3.92-5.95,5.13-9.34
			C58.86,39.91,59.04,39.72,59.17,39.51z"/>
		<path class="st10" d="M59.38,37.8c-0.58,1-1.65,1.19-2.61,1.53c-4.95,1.76-9.9,3.51-14.85,5.25c-3.03,1.07-6.07,2.11-9.1,3.18
			c-0.29,0.1-0.65,0.11-0.84,0.42c-0.41-0.1-0.83-0.2-1.24-0.3c1.05-0.86,2.4-1.04,3.62-1.47c6.77-2.4,13.57-4.74,20.35-7.1
			c1.04-0.36,2.08-0.74,3.13-1.1c0.51-0.18,0.98-0.43,1.34-0.85C59.31,37.47,59.39,37.61,59.38,37.8z"/>
		<path class="st11" d="M60.04,43.61c0.23,0.18,0.22,0.44,0.21,0.69c-0.12,3.34,0.49,6.61,0.93,9.89c0.3,2.24,1.11,4.43,2.76,6.15
			c0.2,0.21,0.41,0.41,0.4,0.73c-1.36-0.75-2.69-1.55-3.9-2.53c-0.75-0.91-0.68-2.02-0.69-3.08c-0.05-3.55-0.02-7.09-0.03-10.64
			C59.72,44.39,59.68,43.95,60.04,43.61z"/>
		<path class="st12" d="M57.43,56.59c1.2-1.23,1.22-2.85,1.28-4.38c0.1-2.46,0.69-4.89,0.49-7.37c-0.01-0.12,0.12-0.24,0.19-0.36
			c0.6,1.2,0.37,2.51,0.4,3.76c0.06,2.67,0.04,5.34,0.05,8c0,0.6,0.12,1.25-0.7,1.46C58.52,57.4,57.96,57.02,57.43,56.59z"/>
		<path class="st13" d="M59.14,57.69c0.4-0.36,0.49-0.82,0.47-1.35c-0.12-2.36-0.06-4.72-0.1-7.08c-0.03-1.59-0.33-3.19-0.12-4.79
			c0.09-2.01-0.2-4.03,0.22-6.02c0.07-0.01,0.14-0.01,0.21,0c-0.11,1.73,0.36,3.43,0.21,5.16c0,3.86,0.01,7.72,0,11.58
			c0,1.13,0.23,2.23,0.41,3.34C59.93,58.38,59.53,58.04,59.14,57.69z"/>
		<path class="st0" d="M20.57,40.46c-0.08,0.43-0.33,0.7-0.76,0.76c-0.4,0.05-0.79-0.15-0.8-0.52c0-0.47,0.3-0.91,0.84-0.93
			C20.24,39.76,20.46,40.08,20.57,40.46z"/>
	</g>
	<g>
		<path class="st14" d="M20.39,67.47c-0.22-4.65-0.51-9.31-0.62-13.97c-0.03-1.33-0.47-2.02-1.62-2.66
			c-5.76-3.21-11.47-6.51-17.2-9.79c-0.32-0.19-0.63-0.4-0.95-0.59c0.04-0.1,0.07-0.19,0.11-0.29c1.59,0.42,3.17,0.84,4.76,1.26
			c1.73,0.8,3.62,1.01,5.43,1.49c2.95,0.79,5.9,1.58,8.88,2.29c0.62,0.15,1.28,0.16,1.83,0.54c0.52,0.68,1.29,0.9,2.08,1.03
			c0.58,0.09,0.99,0.31,1.28,0.84c0.47,0.88,1.44,1.17,2.22,1.63c2.78,1.63,5.5,3.35,8.3,4.93c1.18,0.75,2.37,1.48,3.59,2.18
			c0.74,0.43,1.1,0.99,1.2,1.88c0.2,1.72,0.21,3.43,0.17,5.15c-0.03,1.3,0.2,2.57,0.24,3.86c0.02,0.54,0.28,0.85,0.79,1.01
			c2.02,0.64,4.06,1.2,6.08,1.83c0.6,0.19,0.75-0.01,0.74-0.6c-0.05-2.8-0.03-5.59-0.01-8.39c0-1-0.4-1.68-1.25-2.2
			c-2.77-1.72-5.61-3.33-8.37-5.08c-2.52-1.51-5.02-3.05-7.52-4.59c-0.33-0.21-0.84-0.34-0.65-0.93c0.38-0.22,0.74-0.09,1.14,0
			c5.55,1.35,11.07,2.82,16.61,4.23c1.35,0.34,2.7,0.69,4.05,1.04c1.32,0.34,2.32,1.27,3.43,1.97c4.03,2.54,8,5.17,12.03,7.7
			c0.85,0.53,1.62,1.18,2.58,1.51c0.5,0.23,0.67,0.69,0.78,1.19c0.38,0,0.34-0.42,0.58-0.53c0.4,0.04,0.35,0.35,0.38,0.61
			c0,0.57-0.61,0.54-0.85,0.88c-0.53,1.18-1.3,2.22-1.91,3.36c-0.64,1.19-0.64,2.56-1.32,3.72c-0.18,0.31-0.06,0.73,0.15,1.03
			c0.53,0.75,0.61,1.59,0.57,2.46c-0.04,0.84,0.08,1.63,0.57,2.36c0.38,0.57,0.27,1.24,0.3,1.88c0.02,0.42-0.05,0.93,0.42,1.15
			c1.22,0.58,1.32,1.79,1.2,2.77c-0.22,1.67,0.11,3.28,0.11,4.92c0.01,2.25,0.09,4.52,0.1,6.77c0.01,2.5-0.04,5.01-0.14,7.52
			c-0.01,0.22-0.07,0.42-0.21,0.6c-0.37,0.17-0.48-0.14-0.5-0.36c-0.15-1.58-0.95-2.83-1.96-3.98c-0.07-0.08-0.09-0.19-0.13-0.3
			c0.05,0.99,0.15,1.99,0.06,2.99c-0.04,0.45,0.08,1.17-0.43,1.18c-0.58,0.01-0.41-0.71-0.42-1.13c-0.02-2.91-0.01-5.81-0.01-8.72
			c0-0.61,0-1.22,0-1.83c0.01-0.64-0.04-1.29,0.02-1.92c0.07-0.8-0.3-1.13-1.01-1.36c-2.54-0.83-5.08-1.67-7.61-2.52
			c-0.17-0.04-0.34-0.08-0.5-0.14c-2.72-0.87-5.45-1.72-8.15-2.68c-0.69-0.24-0.95-0.17-0.93,0.64c0.04,2.18,0.01,4.36,0.02,6.54
			c-0.1,1.15,0.2,2.34-0.25,3.51c-0.45-0.11-0.48-0.41-0.52-0.67c-0.06-0.39-0.04-0.79-0.04-1.18c0-1.86-0.18-2.09-2.03-2.61
			c-0.21-0.06-0.49-0.04-0.61-0.19c-0.81-1.03-1.92-0.93-3.07-1.02c-1.44-0.11-2.66-1.03-4.02-1.5c-0.52-0.18-1.02-0.29-1.58-0.23
			c-1.62,0.18-1.79,0.06-2.17-1.5c-0.8,0.93-1.73,0.92-2.73,0.42c-0.8-0.4-1.59-0.39-2.35,0.12c-0.52,0.35-1.03,0.31-1.49-0.08
			c-0.67-0.58-1.45-0.6-2.24-0.5c-0.85,0.11-1.66,0.44-2.55,0.26c-0.36-0.07-0.56,0.23-0.76,0.5c-0.33,0.43-0.51,0.94-0.89,1.34
			c-0.14,0.01-0.24-0.04-0.31-0.15c-0.32-0.8-0.12-1.63-0.16-2.45c-0.03-0.54,0.02-1.08-0.16-1.59c-0.05-2.4-0.33-4.79-0.3-7.19
			c0.01-0.72-0.03-1.43-0.19-2.13c-0.26-2.04-0.4-4.08-0.04-6.14C20.53,68.39,20.56,67.91,20.39,67.47z"/>
		<path class="st15" d="M106.81,72.68c-0.34,1.03-0.11,2.1-0.21,3.14c-0.05,0.48,0.11,0.99-0.19,1.44c-0.33-0.35-0.55-0.76-1-1.03
			c-0.53-0.31-0.36-0.92-0.39-1.43c0.01-0.64,0.03-1.29,0.01-1.93c-0.01-0.3-0.02-0.63-0.48-0.4c-3.4,1.87-6.76,3.78-10.16,5.65
			c-0.32,0.17-0.64,0.34-0.78,0.7c-0.25,1.04,0.19,2.14-0.3,3.16c-0.21,0.17-0.49,0.26-0.7,0.11c-1.55-1.04-3.11-0.66-4.68-0.08
			c-0.41,0.15-0.64,0.44-0.88,0.75c-0.63,0.82-1.43,1.29-2.5,1.22c-0.7-0.05-1.25,0.14-1.55,0.87c-0.2,0.51-0.73,0.64-1.21,0.81
			c-2.88,0.99-4.86,2.8-5.29,5.97c-0.05,0.41-0.15,0.82-0.55,0.99c-1.02,0.42-1.89,1.2-3.06,1.26c-0.32,0.02-0.62,0.15-0.91,0.3
			c-0.82,0.43-1.13,0.26-1.22-0.71c-0.07-0.82-0.19-1.65-0.2-2.46c-0.03-1.64-0.29-3.28-0.08-4.94c0.15-1.14-0.19-2.28-0.19-3.43
			c0.02-4.63,0.01-9.26,0-13.89c0-0.8,0.07-1.57,0.32-2.33c0.21-0.16,0.69,0.11,0.65-0.43c0.46-0.41,1.07-0.37,1.61-0.51
			c2.03-0.52,3.79-1.63,5.67-2.47c1.04-0.47,2.02-1.01,3.16-1.3c1.31-0.33,2.45-1.14,3.7-1.67c0.74-0.32,1.47-0.79,2.32-0.31
			c0.14,0.2,0.19,0.44,0.2,0.68c0.09,2.22-0.34,4.42-0.21,6.64c0.07,1.22,0.11,1.28,1.2,0.75c1.09-0.54,2.18-1.09,3.26-1.64
			c0.59-0.3,0.91-0.75,0.97-1.43c0.11-1.14,0.27-2.28,0.21-3.42c-0.11-1.86,0.26-3.7,0.28-5.56c0.06-0.24,0.17-0.43,0.37-0.58
			c1.84-0.14,3.27-1.29,4.87-2.03c0.48-0.22,0.9-0.59,1.42-0.74c2-0.6,3.66-1.88,5.54-2.72c0.66-0.3,1.3-0.55,2.03-0.5
			c-0.16,3.86-0.3,7.72-0.49,11.57C107.17,64.75,106.88,68.71,106.81,72.68z"/>
		<path class="st16" d="M74.46,62.1c2.86-2.71,5.71-5.44,8.59-8.14c2.46-2.31,4.95-4.57,7.41-6.88c0.69-0.65,1.43-1.14,2.31-1.51
			c7.86-3.28,15.7-6.6,23.54-9.92c3.36-1.42,6.72-2.87,10.08-4.29c0.45-0.19,0.88-0.48,1.61-0.4c-1.53,1.35-2.93,2.61-4.34,3.85
			c-2.21,1.94-4.42,3.88-6.63,5.82c-0.16,0.14-0.35,0.23-0.52,0.35c-0.29-0.03-0.46,0.17-0.64,0.34c-0.15,0.15-0.27,0.41-0.47,0.43
			c-1.25,0.18-2.24,0.86-3.3,1.49c-0.57,0.34-1.31,0.49-1.93,0.86c-1.02,0.61-2.2,0.54-3.34,0.58c-0.3,0.01-0.55-0.17-0.59-0.52
			c0.49-1.13,1.54-1.75,2.39-2.53c1.28-1.19,2.67-2.27,3.88-3.54c-2.79,0.83-5.23,2.17-7.28,4.3c-1.41,1.47-3.03,2.74-4.51,4.14
			c-0.95,0.8-1.89,1.6-2.74,2.5c-0.24,0.25-0.49,0.53-0.9,0.48c-0.26-0.8-0.1-1.05,0.88-1.43c-2.02,0.36-4.06,0.63-5.94,1.54
			c-0.36,0.17-0.69,0.35-1.02,0.58c-1.08,0.77-2.12,1.62-3.5,1.81c-0.29,0.04-0.53,0.22-0.75,0.4c-2.27,1.79-4.65,3.45-6.8,5.4
			c-1.48,1.35-2.98,2.69-4.39,4.11C75.28,62.2,74.93,62.73,74.46,62.1z"/>
		<path class="st17" d="M74.46,62.1c0.48,0.3,0.72-0.12,0.96-0.38c2.38-2.58,5.07-4.82,7.78-7c1.25-1,2.5-2.08,3.89-2.93
			c0.23-0.14,0.43-0.25,0.69-0.13c0.2,0.09,0.53,0.21,0.59,0.04c0.48-1.22,1.86-1.09,2.72-1.81c1.29-1.09,3.1-1.51,4.84-1.72
			c0.7-0.09,1.39-0.2,2.11-0.44c-0.13,0.73-1.17,0.86-0.93,1.7c-0.29,1.03-1.24,1.51-1.95,2.14c-1.26,1.11-2.38,2.37-3.73,3.38
			c-0.97,1.14-2.32,1.9-3.22,3.11c-0.36,0.52-0.14,1.24-0.6,1.73c-1.26-0.12-2.3,0.57-3.27,1.12c-1.72,0.99-3.68,1.28-5.41,2.22
			c-1.86,1.01-3.75,2-5.8,2.61c-0.62,0.18-1.24,0.34-1.89,0.3c-0.02-0.22,0.04-0.46-0.17-0.63C72.01,64.09,73.27,63.14,74.46,62.1z"
			/>
		<path class="st18" d="M106.39,44.04c0.03,0.18,0.1,0.41,0.29,0.39c1.22-0.12,2.51,0.1,3.59-0.71c0.17-0.13,0.33-0.29,0.53-0.36
			c0.93-0.3,1.75-0.7,2.58-1.3c0.82-0.6,2.13-0.56,3.13-1.08c-2.56,2.28-5.12,4.56-7.68,6.83c-0.44,0.39-0.8,0.82-0.96,1.4
			c-1.78,0.64-3.53,1.4-5.09,2.43c-1.31,0.86-2.86,1.06-4.15,2c-0.95,0.69-2.18,1.13-3.29,1.65c-0.43,0.2-0.82,0.19-1.22-0.04
			c-0.13-0.57,0.34-0.83,0.66-1.13c1.87-1.77,3.82-3.45,5.73-5.17c0.35-0.31,0.69-0.62,1.02-0.95c1.37-1.18,2.74-2.37,4.06-3.6
			C105.79,44.2,106,43.91,106.39,44.04z"/>
		<path class="st19" d="M21.02,45.97c-1.47-0.66-3.08-0.82-4.61-1.28c-1.66-0.5-3.34-0.92-5.01-1.36c-1.74-0.46-3.49-0.95-5.28-1.26
			c-0.46-0.08-1.03-0.07-1.26-0.65c2.89,0.53,5.7,1.37,8.54,2.08c6.62,1.66,13.23,3.37,19.85,5.05c6.23,1.59,12.46,3.18,18.69,4.76
			c0.61,0.16,1.09,0.54,1.6,0.86c5.27,3.39,10.52,6.81,15.77,10.22c0.15,0.1,0.27,0.22,0.4,0.34c-0.83,0.23-1.32-0.45-1.88-0.8
			c-3.84-2.4-7.65-4.86-11.47-7.3c-0.42-0.27-0.86-0.51-1.24-0.83c-2.97-2.45-6.73-2.78-10.24-3.74c-4.64-1.28-9.31-2.42-13.98-3.6
			c-0.34-0.09-0.71-0.07-1.06-0.11c-0.71,0.32-1.3-0.17-1.94-0.29c-1.95-0.39-3.84-1.01-5.77-1.5
			C21.75,46.46,21.36,46.25,21.02,45.97z"/>
		<path class="st20" d="M70.6,66.45c0,2.36,0,4.72,0,7.08c0,5.49,0,10.99,0,16.48c0,1.32,0.64,2.56,0.47,3.91
			c-0.05,0.39,0.3,0.62,0.58,0.14c0.24-0.42,0.59-0.45,1-0.47c0.79-0.04,1.57-0.15,2.13-0.82c0.2-0.24,0.5-0.25,0.79-0.26
			c0.44-0.02,0.62-0.29,0.63-0.71c0.02-1.33,0.55-2.44,1.3-3.52c1.08-1.56,2.58-2.4,4.34-2.91c0.45-0.13,0.97-0.25,1.01-0.82
			c0.05-0.81,0.55-0.93,1.19-0.86c1.49,0.17,2.59-0.34,3.16-1.78c0.01-0.03,0.03-0.1,0.04-0.1c0.98,0.16,1.7-0.99,2.52-0.74
			c0.9,0.28,1.66,0.25,2.54-0.09c0.07,0.56,0.13,1.15,0.91,0.97c0.47,0.58,0.43,1.16,0.02,1.74c-0.14,0.07-0.23-0.02-0.31-0.12
			c0.39,1.17,0.09,2.39,0.22,3.58c0.02,0.18,0.1,0.34,0.13,0.51c-0.02,0.78,0.34,1.61-0.31,2.3c-0.15-0.05-0.35-0.07-0.11-0.28
			c-0.3,0.1-0.08,0.28-0.05,0.41c0.25,1.13-0.07,2.29,0.2,3.41c0.07,0.28,0.07,0.57,0.02,0.86c-0.25,1.62-1.53,2.52-2.77,3.07
			c-1.89,0.84-3.4,2.25-5.25,3.11c-1.66,0.77-2.91,2.16-4.64,2.85c-1.29,0.51-2.08,1.84-3.38,2.42c-0.1,0.04-0.17,0.14-0.27,0.18
			c-1.7,0.69-3.17,1.73-4.6,2.86c-0.86,0.68-1.25,0.46-1.57-0.64c-0.17-0.59-0.17-1.2-0.35-1.79c-0.06-0.35-0.07-0.69,0.21-0.97
			c0-2.01,0-4.02,0-6.03c0-3.32,0.15-6.65-0.06-9.95c-0.12-1.74,0.23-3.48-0.16-5.19c-0.12-0.51-0.17-1.06-0.95-1.06
			c-0.52,0-0.55-0.47-0.55-0.88c0.01-1.1,0.09-2.16-0.68-3.15c-0.48-0.62-0.15-1.53-0.17-2.32c-0.02-0.58-0.01-1.12-0.49-1.58
			C67,75,66.8,74.54,66.96,74.12c0.42-1.08,0.67-2.22,1.09-3.27C68.67,69.29,69.73,67.91,70.6,66.45z"/>
		<path class="st21" d="M21.65,88.46c0.1-1.65,0.74-2.12,2.43-2.02c0.84,0.05,1.62-0.56,2.51-0.39c0.24,0.05,0.61-0.09,0.74,0.04
			c0.97,0.95,1.92,0.85,3.06,0.23c0.45-0.24,1.14-0.08,1.73,0.28c0.8,0.49,1.7,0.71,2.24-0.45c0.13-0.27,0.36-0.36,0.63-0.26
			c0.34,0.13,0.19,0.38,0.15,0.63c-0.16,0.97,0.25,1.5,1.11,1.2c1.5-0.52,2.67,0.32,3.87,0.82c1.23,0.51,2.36,1.13,3.76,0.77
			c0.45-0.12,0.95-0.07,1.1,0.56c0.11,0.45,0.51,0.62,0.9,0.66c0.58,0.06,1.16,0.05,1.47,0.68c0.03,0.06,0.12,0.14,0.16,0.13
			c1.77-0.61,0.76,0.85,0.86,1.29c0.17,0.78,0.05,1.63,0.3,2.44c0-1.09,0-2.17,0-3.26c0.63,0.26,0.47,0.83,0.47,1.3
			c0.03,2.26,0.01,4.51,0.01,6.77c0,0.5-0.04,1.01,0.17,1.48c0,0.72-0.39,0.58-0.71,0.26c-0.34-0.34-0.64-0.69-1.14-0.75
			c-1.92-0.24-3.5-1.36-5.26-2.01c-1.72-0.64-3.42-1.42-5.31-1.6c-2.07-0.2-4-1.03-5.92-1.81c-0.43-0.17-0.86-0.35-1.32-0.45
			c-2.67-0.53-5.21-1.48-7.82-2.23c-0.23-0.32-0.14-0.72-0.27-1.07C21.6,90.63,21.46,89.54,21.65,88.46z"/>
		<path class="st22" d="M38.04,53.53c3.03,1.83,6.05,3.67,9.1,5.47c0.66,0.39,0.8,1,0.81,1.63c0.04,3.16,0.04,6.31,0.05,9.47
			c0,0.87-0.58,0.41-0.87,0.33c-1.75-0.5-3.47-1.16-5.24-1.55c-1.53-0.33-2.25-0.86-2.22-2.65c0.04-1.66-0.1-3.36-0.1-5.03
			c0-1.15-0.25-2.28-0.23-3.42c0-0.35-0.13-0.61-0.44-0.8c-1.44-0.86-2.87-1.73-4.3-2.6c0.05-0.59,0.49-0.41,0.8-0.37
			c0.56,0.07,1.12,0.19,1.64,0.43c0.32,0.15,0.7,0.41,1,0.17c0.45-0.35-0.22-0.56-0.22-0.89c0-0.08-0.01-0.14,0.05-0.19
			C37.91,53.48,37.97,53.48,38.04,53.53z"/>
		<path class="st23" d="M38.04,53.53c-0.1,0.08-0.11,0.19-0.02,0.27c0.3,0.26,0.91,0.41,0.54,0.95c-0.35,0.51-0.89,0.29-1.36,0.08
			c-0.83-0.38-1.65-0.8-2.6-0.45c-2.61-1.55-5.26-3.03-7.8-4.69c-1.02-0.67-2.48-0.91-2.92-2.36c-0.09-0.3-0.48-0.23-0.76-0.26
			c-0.84-0.1-1.58-0.38-2.11-1.08c2.47,0.64,4.94,1.31,7.42,1.91c0.49,0.12,0.9,0.43,1.41,0.47c1.51,1.27,3.31,2.09,4.97,3.13
			C35.9,52.16,36.97,52.84,38.04,53.53z"/>
		<path class="st24" d="M49.23,101.64c-0.47-0.27-0.36-0.73-0.37-1.15c-0.02-2.47-0.03-4.93-0.05-7.4c0-0.42,0.08-0.86-0.16-1.26
			c-0.01-2.36-0.01-4.72-0.05-7.08c-0.01-0.54,0.05-0.81,0.69-0.59c2.93,1.01,5.88,1.99,8.82,2.98c-0.14,0.22-0.34,0.32-0.59,0.33
			c-2.51-0.73-4.98-1.6-7.47-2.38c-0.5-0.16-1.01-0.29-0.91,0.49c0.3,2.18,0.11,4.36,0.25,6.54c0.02,0.25,0.14,0.48,0.17,0.73
			c0,0.18-0.04,0.34-0.1,0.51c-0.23,1.67-0.15,3.35-0.03,5.03c0.01,0.18,0.1,0.36,0.07,0.53c-0.33,1.92,0.8,2.63,2.42,3.08
			c1.52,0.42,2.97,1.05,4.44,1.61c0.72,0.28,1.05,0.18,1.02-0.69c-0.04-1.03-0.09-2.07,0.08-3.11c0.33-0.94-0.13-1.98,0.34-2.91
			c0.74-0.03,0.57,0.57,0.58,0.95c0.05,1.72,0.05,3.44,0.01,5.15c-0.03,0.99,0.36,1.48,1.29,1.79c1.94,0.64,3.83,1.4,5.75,2.1
			c1.06,0.38,1.19,0.3,1.2-0.81c0.02-1.79-0.03-3.58,0.02-5.37c0.02-0.86-0.32-1.3-1.13-1.55c-0.8-0.25-1.69-0.38-2.28-1.09
			c-0.02-0.21,0.1-0.33,0.26-0.43c0.87-0.1,1.58,0.38,2.35,0.65c0.57,0.2,0.8,0.05,0.8-0.56c-0.01-2.11-0.01-4.22,0-6.34
			c0-0.72-0.42-0.98-1.02-1.18c-2.08-0.68-4.15-1.37-6.22-2.07c-0.43-0.15-0.93-0.19-1.14-0.7c0.03-0.12,0.12-0.2,0.24-0.22
			c2.65,0.86,5.31,1.74,7.97,2.58c0.61,0.19,0.88,0.48,0.83,1.15c-0.05,0.71,0.02,1.43,0.03,2.15c-0.19,1.9-0.09,3.8-0.07,5.7
			c0.03,2.4-0.18,4.79,0.18,7.19c0.11,0.73,0.36,1.68-0.58,2.22c-0.48,0.07-0.91-0.14-1.35-0.3c-5.08-1.87-10.16-3.73-15.25-5.58
			C49.88,102.18,49.46,102.04,49.23,101.64z"/>
		<path class="st25" d="M66.53,108.02c0.82,0.18,0.65-0.43,0.65-0.85c0.01-4.13,0.02-8.25,0.03-12.38c0-0.57-0.11-1.15,0.13-1.7
			c0,3.9,0,7.79,0,11.69c0.1,0,0.2,0.01,0.3,0.01c0-0.83,0.01-1.67,0-2.5c-0.01-0.71-0.03-1.43-0.05-2.14
			c0-0.18,0.03-0.41,0.24-0.41c0.24,0,0.44,0.24,0.36,0.44c-0.31,0.72,0.23,1.04,0.61,1.43c0.84,0.85,1.25,1.89,1.37,3.06
			c0.03,0.28-0.06,0.58,0.22,0.79c0,0.36,0,0.72,0,1.08c0.06,1.2,0.49,2.39,0.19,3.61c-0.12,0.27-0.33,0.37-0.6,0.29
			c-1.37-0.44-2.5-1.29-3.65-2.13c-0.07-0.05-0.09-0.19,0.01-0.28C66.38,107.98,66.45,107.99,66.53,108.02z"/>
		<path class="st26" d="M57.91,96.79c-0.17,1.01,0.19,2.06-0.21,3.06c-0.59-0.68-0.33-1.51-0.31-2.26c0.02-0.94-0.31-1.41-1.21-1.71
			c-1.69-0.58-3.39-1.15-5.07-1.75c-0.65-0.24-1.41-0.33-1.85-0.98c0.08-0.06,0.16-0.13,0.23-0.19c0.47-0.29,0.9-0.01,1.33,0.12
			c1.82,0.54,3.57,1.26,5.37,1.85c1.12,0.36,1.16,0.34,1.17-0.8c0.01-1.79,0-3.57,0.01-5.36c0-0.46-0.07-0.94,0.26-1.33
			c0.1-0.21,0.28-0.26,0.49-0.29c0.13,0.03,0.26,0.05,0.4,0.08c-0.07,0.05-0.15,0.1-0.22,0.15c-0.21,2.45-0.06,4.91-0.09,7.37
			c-0.01,0.58,0.3,0.9,0.82,1.11c1.09,0.44,2.21,0.81,3.32,1.19c0.43,0.15,0.92,0.22,1.14,0.71c-0.09,0.06-0.18,0.13-0.27,0.19
			c-0.39,0.28-0.76,0.07-1.13-0.05c-0.99-0.31-1.97-0.66-2.94-1.03C58.75,96.72,58.34,96.54,57.91,96.79z"/>
		<path class="st27" d="M106.15,85.81c-0.34,0.78-0.07,1.61-0.23,2.4c-0.5,0.12-1.01,0.19-1.44,0.53c-0.26,0.21-0.6,0.39-0.95,0.11
			c-0.04-0.6,0.67-0.74,0.77-1.25c-0.02-2.1,0.24-4.19,0.3-6.29c0.05-1.92,0.21-3.84,0.2-5.76c0-0.36-0.06-0.82,0.49-0.93
			c0.06,0.68-0.27,1.53,0.92,1.67c0.32,0.04,0.12,0.65,0.2,0.99c-0.01,1.48-0.03,2.96-0.04,4.44c-0.24,0.79,0.05,1.61-0.16,2.4
			C106.19,84.68,106.17,85.25,106.15,85.81z"/>
		<path class="st28" d="M106.2,84.11c0.02-0.8-0.16-1.62,0.16-2.4C106.32,82.51,106.59,83.33,106.2,84.11z"/>
		<path class="st29" d="M93.88,55.68c-0.14,3.18-0.29,6.36-0.41,9.54c-0.02,0.56-0.33,0.84-0.77,1.06c-1.51,0.76-3.02,1.5-4.52,2.28
			c-0.64,0.33-0.78,0.14-0.79-0.52c-0.05-2.55,0.16-5.08,0.25-7.63c0.72-1.53,2.19-2.03,3.61-2.57c0.26-0.1,0.57-0.08,0.83-0.18
			c0.7-0.28,1.63-0.34,1.37-1.52C93.41,55.96,93.5,55.63,93.88,55.68z"/>
		<path class="st30" d="M93.88,55.68c-0.48,0.68-0.01,1.48-0.25,2.06c-1.35,0.04-2.56,0.35-3.74,0.96
			c-0.87,0.44-1.52,1.11-2.25,1.72c-0.01-0.21-0.02-0.42-0.03-0.64c0.02-0.68-0.02-1.38,0.43-1.96c1.36-0.99,2.96-1.53,4.45-2.38
			c-0.41-0.29-1.03-0.05-1.21-0.63c1.94-1.79,3.89-3.58,5.83-5.38c1.21-0.94,2.13-2.2,3.45-3.03c0.51,0.21,0.09,0.45,0.02,0.67
			c-0.17,0.49,0.28,0.37,0.47,0.5c0.24,0.15,0.65,0.11,0.6,0.57c-1.73,1.76-3.6,3.36-5.44,4.98c-0.75,0.66-1.51,1.32-2.1,2.13
			C94.03,55.4,93.95,55.54,93.88,55.68z"/>
		<path class="st31" d="M105.3,74.62c-0.26,0.31-0.17,0.68-0.18,1.03c-0.16,3.96-0.31,7.93-0.47,11.89
			c-0.01,0.16-0.11,0.32-0.17,0.49c-0.21-0.04-0.34-0.17-0.43-0.36c-0.31-0.85,0.06-1.69,0.07-2.53c0.02-1.6-0.01-3.2,0.15-4.8
			c0.08-2.55,0.42-5.08,0.29-7.63c-0.06-0.15-0.12-0.29-0.14-0.45c0.21-0.18,0.44-0.46,0.72-0.33c0.32,0.15,0.14,0.51,0.15,0.77
			C105.32,73.34,105.3,73.98,105.3,74.62z"/>
		<path class="st32" d="M92.82,89.97c0.32-0.79,0.15-1.62,0.15-2.43c-0.07-1.27-0.18-2.55,0.07-3.81c0.31-0.57,0.16-1.18,0.15-1.77
			c0.15-1.15-0.15-2.33,0.22-3.47c0.21,0.05,0.35,0.18,0.43,0.38c0.2,0.63,0.17,1.27,0.08,1.9c-0.26,1.88-0.17,3.76-0.09,5.64
			c0.02,0.13,0.01,0.26,0,0.39c-0.52,1.68-0.21,3.4-0.28,5.1c-0.04,0.96,0.01,1.93-0.37,2.84c-0.07,0.12-0.17,0.19-0.3,0.21
			c-0.25-0.11-0.19-0.29-0.12-0.48c0-0.3,0-0.6,0-0.89C92.69,92.37,92.58,91.17,92.82,89.97z"/>
		<path class="st33" d="M93.62,78.72c-0.07-0.08-0.14-0.15-0.21-0.23c1.01-0.81,2.2-1.32,3.32-1.95c2.55-1.44,5.13-2.86,7.69-4.28
			c0.07,0.07,0.14,0.13,0.21,0.2c-0.08,0.47-0.51,0.56-0.84,0.75c-1.38,0.83-2.83,1.54-4.19,2.4c-0.09,0.06-0.18,0.11-0.27,0.16
			c-1.62,0.78-3.13,1.75-4.73,2.57C94.3,78.49,94.01,78.73,93.62,78.72z"/>
		<path class="st34" d="M101.65,48.14c-0.05-0.05-0.09-0.12-0.15-0.14c-0.46-0.17-1.06-0.2-1.36-0.51
			c-0.39-0.41,0.72-0.53,0.43-1.08c3.81-3.46,7.09-7.67,12.7-8.74c-2.15,2.39-4.68,4.2-6.87,6.38
			C104.78,45.38,103.34,46.91,101.65,48.14z"/>
		<path class="st35" d="M91.28,54.81c0.45,0.31,0.96,0.19,1.45,0.25c0.12,0.02,0.27,0.12,0.33,0.23c0.08,0.15-0.04,0.27-0.18,0.32
			c-1.67,0.62-3.13,1.68-4.85,2.21C88.98,56.66,90.23,55.84,91.28,54.81z"/>
		<path class="st36" d="M92.77,94.47c0.02,0.15,0.04,0.29,0.06,0.44c1.09-0.21,1.84-1.03,2.76-1.54c0.08-0.06,0.16-0.11,0.25-0.16
			c0.57-0.25,1.06-0.64,1.61-0.92c0.64-0.41,1.28-0.83,1.94-1.21c0.52-0.34,1.05-0.66,1.51-1.08c0.32-0.32,0.73-0.49,1.14-0.66
			c0.51-0.12,0.85-0.71,1.47-0.5c0.45,0.03,0.82-0.18,1.11-0.48c0.41-0.42,0.83-0.44,1.31-0.14c0,0.49,0,0.97,0,1.46
			c-0.03,0.1-0.1,0.14-0.2,0.13c-0.09-0.02-0.19-0.05-0.28-0.08c-0.79,0.05-1.43,0.47-2.07,0.86c-3.64,2.22-7.3,4.4-10.89,6.71
			c-2.56,1.65-5.25,3.09-7.76,4.8c-1.87,1.27-3.8,2.44-5.71,3.63c-2.37,1.48-4.66,3.09-7.1,4.46c-0.43,0.24-0.86,0.73-1.46,0.36
			c-0.02-0.05-0.05-0.09-0.07-0.14c0-1.29,0-2.59,0-3.88c0.35,0.6,0.25,1.31,0.46,1.94c0.16,0.5,0.37,0.75,0.9,0.32
			c0.78-0.64,1.68-1.14,2.36-1.9c0.09-0.1,0.19-0.26,0.31-0.28c2.13-0.38,3.59-1.85,5.2-3.11c0.51-0.4,1.08-0.81,1.8-0.9
			c0.35-0.04,0.65-0.28,0.9-0.55c0.98-1.09,2.33-1.61,3.57-2.28c1.1-0.59,1.88-1.65,3.11-2.03c0.94-0.29,1.68-0.85,2.43-1.46
			C92.05,95.77,92.53,95.24,92.77,94.47z"/>
		<path class="st15" d="M93.04,83.73C93.02,85,93,86.27,92.98,87.54c-0.41-1.48-0.06-2.98-0.19-4.54
			C93.13,83.23,92.96,83.52,93.04,83.73z"/>
		<path class="st15" d="M92.82,89.97c-0.02,1.2-0.04,2.41-0.06,3.61c-0.42-1.33-0.02-2.69-0.23-4.14c0.16,0.14,0.23,0.17,0.24,0.22
			C92.81,89.75,92.81,89.86,92.82,89.97z"/>
		<path class="st37" d="M66.53,108.02c0.74,0.67,1.55,1.23,2.44,1.68c0.47,0.24,0.95,0.47,1.42,0.71c0,0,0,0,0,0
			c0.21,0.39,0.56,0.72,0.49,1.22c-0.38,0.46-0.81,0.33-1.25,0.1c-1.63-1.3-3.64-1.83-5.5-2.65c-1.99-0.88-4.09-1.56-6.1-2.38
			c-2.45-1.01-4.96-1.85-7.41-2.86c-2.62-1.08-5.36-1.83-8-2.88c-2.06-0.82-4.15-1.56-6.23-2.34c-2.07-0.78-4.14-1.61-6.29-2.18
			c-1.62-0.43-3.23-1-4.76-1.7c-1.14-0.53-2.39-0.69-3.53-1.17c-0.02-0.28-0.13-0.58,0.1-0.83c1.8,0.12,3.46,0.81,5.15,1.32
			c0.82,0.25,1.6,0.6,2.47,0.62c0.28,0.01,0.57,0.08,0.83,0.2c2.78,1.32,5.77,1.86,8.73,2.59c2.08,0.52,4.16,1.24,5.97,2.51
			c0.74,0.51,1.67,0.25,2.49,0.57c0.57,0.22,1.13,0.28,1.25,1.02c0.03,0.16,0.27,0.21,0.44,0.05
			C54.99,103.76,60.76,105.89,66.53,108.02z"/>
		<path class="st38" d="M49.26,93.14c2.54,0.89,5.07,1.8,7.62,2.65c0.63,0.21,0.84,0.51,0.81,1.15c-0.05,0.97,0.01,1.94,0.02,2.91
			c0,1.46,0,2.93,0,4.53c-2.77-1.02-5.42-1.99-8.06-2.96c-0.27-0.1-0.4-0.26-0.41-0.55c-0.07-2.5-0.27-5-0.16-7.5
			C49.08,93.29,49.19,93.21,49.26,93.14z"/>
		<path class="st39" d="M57.91,96.79c-0.02-0.67,0.33-0.51,0.75-0.37c1.51,0.52,3.04,1.02,4.56,1.53c1,0.37,2,0.77,3.01,1.11
			c0.51,0.17,0.73,0.41,0.72,0.99c-0.04,2.29-0.05,4.59-0.03,6.88c0,0.68-0.18,0.78-0.81,0.54c-2.44-0.93-4.9-1.81-7.36-2.68
			c-0.53-0.19-0.69-0.48-0.68-1.02c0.02-1.93-0.01-3.87-0.03-5.8C58.03,97.56,58.12,97.16,57.91,96.79z"/>
		<path class="st40" d="M63.48,97.76c-1.56-0.54-3.11-1.1-4.67-1.61c-0.62-0.2-0.9-0.49-0.89-1.21c0.04-2.26-0.02-4.52-0.02-6.78
			c0-0.3-0.24-0.78,0.39-0.79c2.41,1,4.92,1.72,7.41,2.5c1,0.31,1.3,0.75,1.27,1.77c-0.08,2.39-0.03,4.78-0.03,7.28
			C65.71,98.51,64.59,98.13,63.48,97.76z"/>
		<path class="st41" d="M57.62,87.42c0,2.72,0,5.43,0,8.27c-2.74-0.93-5.44-1.84-8.13-2.75c-0.16-0.17-0.46-0.22-0.45-0.55
			c0-2.63,0-5.27,0-7.98C51.84,85.48,54.85,86.09,57.62,87.42z"/>
		<path class="st42" d="M103.51,88.84c-0.51,0.27-1.01,0.53-1.52,0.8c0.31-1.18,1.35-1.44,2.29-1.82c0.07,0.07,0.14,0.14,0.21,0.21
			C104.16,88.3,103.83,88.57,103.51,88.84z"/>
		<path class="st43" d="M99.51,75.5c1.56-1.27,3.44-2.01,5.13-3.05c0.14,0.01,0.39-0.17,0.37,0.15c-0.11,2.37-0.24,4.74-0.36,7.11
			c-0.01,0.23-0.07,0.42-0.28,0.53c-0.04,0.37-0.31,0.54-0.61,0.67c-1.24,0.5-2.28,1.36-3.47,1.93c-0.34,0.16-0.66,0.48-1.08,0.16
			c-0.16-0.21-0.25-0.46-0.2-0.7C99.42,80.05,98.92,77.74,99.51,75.5z"/>
		<path class="st44" d="M103.85,80.66c0.17-0.14,0.34-0.28,0.52-0.42c0.25,0.25,0.27,0.54,0.25,0.88c-0.14,2.05-0.26,4.1-0.37,6.15
			c-0.01,0.18,0.02,0.35,0.03,0.53c-0.6,0.81-1.79,0.88-2.29,1.82c-0.32,0.17-0.64,0.34-0.96,0.51c-0.73,0.24-1.17,1.07-2.05,1.01
			c-0.43-1.07-0.28-2.21-0.18-3.29c0.14-1.48-0.02-3,0.41-4.46C100.72,82.43,102.3,81.58,103.85,80.66z"/>
		<path class="st45" d="M93.06,94.85c0.24-2.32,0.16-4.65,0.21-6.97c0.01-0.41,0.06-0.78,0.41-1.05c0.93-1.15,2.35-1.59,3.53-2.38
			c0.49-0.33,0.96-0.79,1.65-0.67c0.46,0.86,0.2,1.78,0.17,2.66c-0.04,1.21-0.2,2.42-0.14,3.62c0.05,1.08-0.28,1.79-1.25,2.21
			c-0.62,0.34-1.2,0.75-1.81,1.12l0.01-0.01C94.89,93.84,94.15,94.68,93.06,94.85z"/>
		<path class="st46" d="M93.62,78.72c1.79-1.22,3.73-2.2,5.64-3.21c0.49,0.89,0.08,1.82,0.08,2.71c-0.01,1.56-0.12,3.12-0.17,4.68
			c-0.01,0.26-0.05,0.49-0.24,0.68c-1.47,0.78-2.87,1.69-4.32,2.5c-0.3,0.17-0.54,0.47-0.94,0.42c-0.44-0.27-0.23-0.71-0.23-1.07
			C93.48,83.19,93.56,80.95,93.62,78.72z"/>
		<path class="st47" d="M93.67,86.5c1.65-0.98,3.31-1.97,4.96-2.95c0.07,0.12,0.07,0.23-0.02,0.33c-1.65,0.98-3.29,1.96-4.94,2.94
			C93.67,86.71,93.67,86.61,93.67,86.5z"/>
		<path class="st48" d="M93.06,94.85c1-0.35,1.71-1.24,2.77-1.47c-0.73,0.84-1.8,1.19-2.67,1.83c-0.3,0.22-0.33-0.07-0.32-0.29
			C92.9,94.89,92.98,94.87,93.06,94.85z"/>
		<path class="st49" d="M98.61,83.88c0.01-0.11,0.01-0.22,0.02-0.33c0.29-0.19,0.4-0.46,0.41-0.81c0.07-2.41,0.15-4.82,0.23-7.23
			c0.08,0,0.16,0,0.24,0c0.3,0.43,0.1,0.89,0.08,1.34c-0.1,1.92-0.19,3.84-0.28,5.76c-0.01,0.18-0.01,0.36,0.19,0.45
			c0.11,0.11,0.11,0.21,0,0.32c-0.07,0.12-0.2,0.24-0.21,0.36c-0.09,2.39-0.17,4.79-0.24,7.19c0,0.1,0.08,0.2,0.12,0.29
			c0.11-0.08,0.23-0.08,0.33,0.02c-0.66,0.42-1.31,0.83-1.97,1.25c-0.1-0.03-0.16-0.09-0.2-0.19c1.12-0.5,1.32-1.37,1.37-2.55
			c0.07-1.77,0.12-3.55,0.19-5.33C98.89,84.19,99.04,83.89,98.61,83.88z"/>
		<path class="st25" d="M70.82,111.5c-0.34-0.28-0.46-0.66-0.44-1.09c1.28,0.05,2.1-0.88,3.06-1.47c3.1-1.89,6.16-3.86,9.25-5.76
			c1.81-1.11,3.55-2.38,5.39-3.47c4.64-2.77,9.05-5.9,13.82-8.46c0.87-0.47,1.62-1.18,2.57-1.53c0.39-0.15,0.77-0.57,1.26-0.21
			c-0.52,0.72-1.35,1.03-2.05,1.49c-1.88,1.22-3.76,2.43-5.66,3.61c-4.67,2.93-9.31,5.91-13.98,8.84
			c-4.12,2.59-8.22,5.21-12.33,7.79C71.43,111.41,71.18,111.63,70.82,111.5z"/>
		<path class="st50" d="M97.96,94.46c2.59-1.65,5.17-3.3,7.76-4.94c0.02,0.07,0.04,0.13,0.07,0.2c-0.07,0.12-0.12,0.28-0.23,0.35
			c-2.33,1.51-4.61,3.1-7.05,4.44C98.33,94.55,98.14,94.62,97.96,94.46z"/>
		<path class="st51" d="M97.32,92.3c0.07,0.06,0.13,0.12,0.2,0.19c-0.58,0.28-1.03,0.81-1.71,0.9
			C96.16,92.81,96.82,92.66,97.32,92.3z"/>
		<path class="st52" d="M99.49,91.24c-0.11-0.01-0.22-0.01-0.33-0.02c0.56-0.46,1.12-0.92,1.87-1.08
			C100.66,90.7,100.01,90.87,99.49,91.24z"/>
		<path class="st53" d="M21.91,94.03c0-0.14-0.01-0.28-0.01-0.42c1.83-0.22,3.28,0.89,4.9,1.4c2.98,0.94,5.95,1.94,8.9,2.96
			c0.88,0.3,1.69,0.76,2.58,1.07c2.48,0.87,4.92,1.85,7.39,2.74c2.99,1.07,5.97,2.17,8.95,3.29c3.47,1.31,6.97,2.56,10.36,4.08
			c1.6,0.72,3.42,1.08,4.76,2.36c-0.08,0.08-0.18,0.13-0.3,0.15c-2.18-0.48-4.21-1.43-6.28-2.21c-8.86-3.35-17.76-6.62-26.64-9.93
			C31.64,97.7,26.74,95.95,21.91,94.03z"/>
		<path class="st54" d="M69.51,111.51c-0.07,0.15-0.14,0.31-0.21,0.46c-1.36,0.08-2.44-0.73-3.65-1.13
			c-0.23-0.04-0.49,0.04-0.64-0.21c-3.8-1.36-7.57-2.76-11.36-4.14c-2.85-1.04-5.67-2.16-8.5-3.24c-4.36-1.66-8.78-3.19-13.11-4.93
			l0,0c-0.95-0.34-1.91-0.62-2.81-1.08c-2.16-0.84-4.32-1.68-6.48-2.53c-0.34-0.14-0.82-0.14-0.82-0.69
			c1.03-0.19,1.85,0.45,2.73,0.77c7.46,2.73,14.91,5.51,22.35,8.28C54.5,105.88,62,108.7,69.51,111.51z"/>
		<path class="st55" d="M56.14,99.56c-1.01-0.05-1.67-0.67-2.53-0.61c0,0.78,0.01,1.57-0.01,2.35c-0.01,0.36,0.17,0.9-0.41,0.95
			c-0.6,0.05-0.85-0.37-0.92-0.94c0.5-0.05,0.35,0.67,0.89,0.55c0.29-0.95,0-1.94,0.01-2.92c0-0.4-0.46-0.51-0.7-0.56
			c-0.59-0.12-1.09-0.46-1.72-0.61c0.42-0.91,1.13-1.28,2.07-1.14C54.49,96.88,55.28,98.15,56.14,99.56z"/>
		<path class="st56" d="M62.16,101.37c0.22,0.43,0.43,0.29,0.73,0.04c0.45-0.37,0.75-0.93,1.5-1.14c-0.24,0.8-0.92,1.05-1.33,1.53
			c-0.2,0.19-0.14,0.55-0.43,0.68c-0.92,0.07-1.2,1.14-2.17,1.39c0.18-0.79,0.82-1.04,1.26-1.42c0.41-0.36,0.45-0.66,0.15-1.07
			C61.97,101.29,62.06,101.29,62.16,101.37z"/>
		<path class="st57" d="M62.16,101.37c-0.1,0-0.2,0-0.29,0c-0.03-0.02-0.06-0.04-0.1-0.04c-0.06-0.01-0.12-0.02-0.18-0.03
			c0.42,0.66-0.02,0.93-0.61,1.24c-0.23-1.18,0.57-2.46-0.57-3.45c0.68,0.11,0.67,0.99,1.34,0.98c0.27,0.31,0.64,0.59,0.44,1.09
			C62.19,101.23,62.17,101.3,62.16,101.37z"/>
		<path class="st58" d="M65.89,102.02c0.07,0.94,1.17,1.61,0.06,2.2c-0.41,0.22-0.51-0.43-0.72-0.7
			C64.63,102.75,65.49,102.63,65.89,102.02z"/>
		<path class="st59" d="M58.93,101.93c0.03-0.71-1.27-1.42,0.17-1.99C60.01,101.12,60.01,101.12,58.93,101.93z"/>
		<path class="st60" d="M64.52,101.22c0.26,1.04,0.27,2.07,0.03,3.1C64.23,103.29,64.36,102.26,64.52,101.22z"/>
		<path class="st61" d="M63.26,103.93c-0.04,0.19,0.01,0.46-0.35,0.31c-0.42-0.18-0.84-0.32-1.29-0.48
			c0.65-0.83,0.65-0.83,1.65,0.19L63.26,103.93z"/>
		<path class="st62" d="M62.2,101.16c-0.15-0.36-0.29-0.73-0.44-1.09c0.21,0.05,0.42,0.09,0.62,0.15c0.27,0.09,0.54,0.2,0.88,0.32
			C62.93,100.88,62.82,101.42,62.2,101.16z"/>
		<path class="st63" d="M63.09,102.12c0.22-0.15,0.44-0.3,0.8-0.54c-0.07,0.71,0.23,1.29-0.17,1.84
			C63.41,103.04,62.77,102.81,63.09,102.12z"/>
		<path class="st64" d="M63.09,102.12c-0.02,0.54,0.52,0.82,0.63,1.3c0,0.1-0.01,0.2-0.01,0.3c-0.09,0.07-0.17,0.07-0.23-0.04
			c-0.28-0.41-0.56-0.81-0.84-1.22c-0.01-0.32,0.13-0.55,0.43-0.68C63.07,101.91,63.08,102.01,63.09,102.12z"/>
		<path class="st65" d="M60.43,99.74c0,1.04,0,2.07,0,3.11c-0.04,0-0.09,0-0.13,0c0-1.04,0-2.07,0-3.11
			C60.34,99.75,60.39,99.75,60.43,99.74z"/>
		<path class="st66" d="M63.47,103.69c0.08,0.01,0.16,0.02,0.23,0.04c0.26,0.45,0.52,0.89,0.88,1.51c-0.83-0.26-0.77-1.09-1.32-1.31
			c0,0,0.01,0.01,0.01,0.01C63.33,103.86,63.4,103.78,63.47,103.69z"/>
		<path class="st67" d="M62.21,91.67c-0.83-0.4-0.96-0.1-0.93,0.5c0.04,0.71,0.02,1.43,0,2.14c-0.01,0.25,0.12,0.64-0.36,0.61
			c-0.35-0.02-0.61-0.21-0.61-0.6c-0.01-0.75,0.01-1.5-0.02-2.24c-0.01-0.47,0.19-1.02-0.51-1.24c-0.31-0.1-0.15-0.33-0.01-0.5
			c0.31-0.39,0.61-0.78,1.01-1.3C61.27,89.9,61.69,90.69,62.21,91.67z"/>
		<path class="st68" d="M65.11,92.54c-0.71-0.2-1.04-0.11-0.94,0.63c0.1,0.7,0.04,1.43,0.02,2.14c-0.01,0.23,0.17,0.66-0.32,0.62
			c-0.33-0.03-0.58-0.23-0.58-0.64c0.02-0.79,0-1.57,0-2.36c0-0.25,0.09-0.64-0.04-0.73c-1.62-1.16,0.45-1.33,0.59-2.05
			C64.24,90.89,64.63,91.64,65.11,92.54z"/>
		<path class="st63" d="M59.69,94.78c1.52,0.49,3.03,0.98,4.54,1.48c0.2,0.07,0.43,0.12,0.59,0.24c0.28,0.2,0.24,0.53,0.15,0.79
			c-0.12,0.38-0.41,0.15-0.62,0.08c-1.36-0.46-2.7-0.95-4.07-1.39C59.63,95.78,59.47,95.4,59.69,94.78z"/>
		<path class="st69" d="M51.99,88.44c0.22-0.64,0.1-1.27,0.03-1.99c1.11,0.35,2.09,0.67,3.08,0.97c0.4,0.12,0.59,0.35,0.56,0.78
			c-0.04,0.53-0.02,1.07-0.06,1.61c-0.05,0.55-0.41,0.87-0.88,1.13c-0.37,0.21-1.09-0.29-1.12,0.61c-0.03,0.84,0.01,1.58,0.96,1.9
			c0.13,0.04,0.23,0.16,0.3,0.37c-1.09-0.37-2.17-0.74-3.28-1.11c0.38-0.45,1.16,0.32,1.25-0.44c0.08-0.69,0.25-1.44-0.62-1.98
			c-1.39-0.87-1.54-2.32-1.43-3.81c0.01-0.18,0-0.39,0.26-0.36c0.27,0.03,0.42,0.21,0.55,0.45C51.91,87.17,51.33,87.94,51.99,88.44z
			"/>
		<path class="st70" d="M102.95,79.37c-0.17,0.02-0.27-0.03-0.29-0.21c-0.12-1.06,0.35-2.12-0.19-3.23
			c-0.2-0.41,0.41-1.21,0.72-2.01c0.35,0.79,0.82,1.21,0.25,2.05c-0.38,0.56-0.16,1.53-0.2,2.31c-0.02,0.39,0.01,0.79-0.3,1.11
			L102.95,79.37z"/>
		<path class="st71" d="M101.21,80.46c-0.45-0.01-0.35-0.31-0.36-0.6c-0.04-0.93,0.35-1.84-0.17-2.83
			c-0.22-0.41,0.37-1.24,0.63-1.99c0.42,0.66,0.93,1.06,0.28,1.92c-0.35,0.47-0.12,1.38-0.15,2.09c-0.02,0.43-0.04,0.85-0.06,1.28
			C101.38,80.45,101.32,80.49,101.21,80.46z"/>
		<path class="st72" d="M101.21,80.46c0.06-0.04,0.12-0.08,0.17-0.12c0.56-0.26,1.12-0.51,1.56-0.97c0,0-0.02,0.02-0.02,0.02
			c0.25,0.09,0.53-0.46,0.7-0.02c0.1,0.25,0.04,0.63-0.31,0.83c-0.96,0.55-1.9,1.11-2.86,1.68
			C100.06,80.99,100.76,80.79,101.21,80.46z"/>
		<path class="st47" d="M99.49,83.38c0-0.11,0-0.22,0-0.32c1.46-0.78,2.75-1.89,4.36-2.39C102.53,81.77,100.94,82.46,99.49,83.38z"
			/>
		<path class="st73" d="M102.28,86.72c-0.54,0.7-1.08,1.39-1.71,2.2c-0.15-0.75-0.27-1.36-0.39-1.97c-0.06-0.06-0.08-0.11-0.06-0.17
			c0.02-0.06,0.03-0.09,0.05-0.09c0.45-0.42-0.04-1.12,0.44-1.61c0.36,0.48,0.04,1.01,0.26,1.45c0.36-0.01,0.35-0.57,0.75-0.48
			C102.01,86.1,102.38,86.18,102.28,86.72z"/>
		<path class="st74" d="M103.39,85.16c-0.38,0.37-0.06,0.9-0.42,1.57c0-1.05,0-1.84,0-2.93c-0.53,0.95,0.22,1.83-0.52,2.42
			c-0.44,0.05-0.6-0.31-0.82-0.58l0.01,0.01c-0.09-0.1-0.09-0.2,0-0.3c-0.21-1.2,1.19-1.42,1.3-2.46c0.5,0.56,0.19,1.23,0.63,1.65
			C103.73,84.8,103.6,84.99,103.39,85.16z"/>
		<path class="st75" d="M103.39,85.16c0.06-0.21,0.12-0.42,0.18-0.63c0.06-0.23,0.11-0.48,0.32-0.64c0.71,0.5,0.22,1.09,0,1.54
			C103.73,85.76,103.6,85.2,103.39,85.16z"/>
		<path class="st76" d="M100.16,86.69c0,0.09,0.01,0.17,0.01,0.26c-0.1,0.22-0.19,0.45-0.29,0.67c-0.07,0.14-0.18,0.21-0.33,0.12
			c-0.16-0.1-0.27-0.27-0.2-0.44c0.14-0.35,0.33-0.69,0.51-1.03C99.96,86.41,100.06,86.55,100.16,86.69z"/>
		<path class="st77" d="M101.63,85.64c0.27,0.19,0.55,0.39,0.82,0.58c-0.06,0.43,0.5,0.59,0.46,1.03c-0.45,0.1-0.42-0.36-0.63-0.53
			c-0.08-0.36-0.44-0.45-0.66-0.67C101.62,85.91,101.63,85.77,101.63,85.64z"/>
		<path class="st78" d="M101.63,85.34c0,0.1,0,0.2,0,0.3c-0.48-0.26-0.69-0.74-1.09-1.37C101.22,84.54,101.34,85.03,101.63,85.34z"
			/>
		<path class="st79" d="M95.61,89.5c-0.41,0.17-0.67,0.63-1.26,0.6c0.3-1.06,0.85-1.91,1.61-2.63c0.44-0.42,0.9-0.39,1.35-0.07
			c0.49,0.35,0.67,0.75-0.02,1.12c-0.34,0.18-0.66,0.4-0.99,0.61C96.11,89.31,95.88,89.45,95.61,89.5z"/>
		<path class="st80" d="M95.61,89.5c0.18-0.22,0.43-0.32,0.7-0.38c-0.03,0.82-0.08,1.63-0.1,2.45c-0.01,0.36-0.03,0.72-0.22,1.03
			c-0.13,0.21-0.25,0.45-0.54,0.46c-0.17,0.01-0.25-0.14-0.27-0.28c-0.08-0.44,0.28-0.25,0.46-0.34c0.23-0.11,0.19-0.38,0.16-0.57
			C95.68,91.08,96.13,90.25,95.61,89.5z"/>
		<path class="st81" d="M95.39,80.21c-0.13-1.81,1.07-2.47,2.56-2.98c0.16,1.53,0.06,2.95-1.06,4.09c-0.54,0.55-0.34,1.21-0.38,1.82
			c-0.03,0.6,0.53,0.02,0.73,0.35c-0.66,0.4-1.33,0.8-1.99,1.21c-0.03-0.02-0.06-0.05-0.09-0.07c0.16-0.18,0.32-0.36,0.48-0.54
			c0.63-0.7,0.48-1.71-0.32-2.16c-0.53-0.3-0.81-2.72-0.35-3.08c0.24-0.18,0.4-0.08,0.41,0.2C95.4,79.43,95.39,79.82,95.39,80.21z"
			/>
	</g>
</g>
</svg>
