<?xml version="1.0" encoding="utf-8"?>
<!-- Generator: Adobe Illustrator 24.0.2, SVG Export Plug-In . SVG Version: 6.00 Build 0)  -->
<svg version="1.1" id="Capa_1" xmlns="http://www.w3.org/2000/svg" xmlns:xlink="http://www.w3.org/1999/xlink" x="0px" y="0px"
	 viewBox="0 0 128 128" style="enable-background:new 0 0 128 128;" xml:space="preserve">
<style type="text/css">
	.st0{fill:#DF3335;}
	.st1{fill:#FE3335;}
	.st2{fill:#FCAF40;}
	.st3{fill:#FC3234;}
	.st4{fill:#FA9540;}
	.st5{fill:#CE3337;}
	.st6{fill:#FD4733;}
	.st7{fill:#F9B755;}
	.st8{fill:#FB1312;}
	.st9{fill:#FA5617;}
	.st10{fill:#F98A40;}
	.st11{fill:#FABF68;}
	.st12{fill:#F9C176;}
	.st13{fill:#C43338;}
	.st14{fill:#FB5433;}
	.st15{fill:#FC6132;}
	.st16{fill:#FC3B32;}
</style>
<g>
	<path class="st0" d="M109.27,28.21c7.17,15.65,0.91,36.58-14.29,47.82c-5.15,3.81-5.14,3.8-2.13,9.62
		c0.59,1.14,1.04,2.35,1.56,3.53c-1.17,0.93-1.17,0.93-3.16-0.95c0.55,6.09-2.61,9.85-6.72,13.77c-5.01,4.78-9.08,10.58-13.25,16.19
		c-0.9,1.21-1.04,2.63-1.12,4.09c-0.07,1.26,0.15,2.67-1.2,3.53c-12.41,0.14-24.82-0.03-37.23,0.1c-2.9,0.03-3.2-0.93-1.77-3.14
		c9.59-14.78,18.07-30.29,28.86-44.28c5.22-6.46,10.34-13.01,16.38-18.77c4.33-4.13,9.2-7.63,13.46-11.84
		c1.71-1.69,3.08-3.5,3.65-5.86c2.19-5.18,6.18-8.9,10.25-12.53c0.8-0.71,1.48-1.39,1.84-2.39c0.41-1.12,0.94-2.27,2.29-2.33
		c1.7-0.07,1.11,1.77,1.87,2.55C108.82,27.57,108.99,27.94,109.27,28.21z"/>
	<path class="st1" d="M19.21,2.38c0.74-1.78,2.37-1.33,3.69-1.33c16.02-0.03,32.04-0.09,48.06,0.02
		c11.17,0.08,20.79,4.15,28.77,11.98c1.05,1.03,2.63,1.8,2.55,3.66c-1.05,0.32-1.95-0.09-2.84-0.57c-6.86-4.53-14.3-5.99-22.32-4.04
		c-4.37,1.06-7.49,4.05-10.35,7.28c-2.07,2.33-3.75,4.98-5.45,7.6c-7.36,10.78-13.39,22.33-19.79,33.67
		c-0.88,1.56-1.49,3.44-3.8,3.46c-4.66-0.25-9.3-0.44-13.94,0.28c-1.52,0.23-3.13,0.39-4.28-1.07c-0.21-19.02-0.03-38.05-0.1-57.07
		C19.39,4.96,19.69,3.65,19.21,2.38z"/>
	<path class="st2" d="M99.89,15.68c0.8,0.34,1.59,0.68,2.39,1.02c0,0-0.04,0.23-0.04,0.23c-0.26,2.89-2.18,1.38-3.27,1.02
		c-3.52-1.17-7.05-2.25-10.74-2.71c-0.26,0.01-0.52,0-0.78,0.02C72.42,16.23,70.73,26.51,75.74,36.9c0.45,0.94,1.12,1.77,1.45,2.77
		c0.27,1-0.18,1.77-0.78,2.5c-11.45,14.1-21.09,29.46-31.1,44.56c-3.83,5.77-8.46,11.01-11.92,16.98
		c-3.35,5.79-7.66,10.88-11.12,16.57c-1.01,1.66-2.23,3.24-4.02,4.2c-2.72-2.26-2.67-5.27-2.3-8.37c0.4-0.23,1.13,0.34,1.29-0.35
		c2.73-11.78,9.36-21.84,14.31-32.65c1.73-3.77,4.08-7.22,5.53-11.12c4.66-9.9,10.85-18.95,15.95-28.59
		c3.04-5.74,6.82-11.01,9.93-16.69c3.18-4.79,6.86-9.23,11.84-12.1C83.25,9.74,91.7,11.17,99.89,15.68z"/>
	<path class="st3" d="M69.21,125.32c-0.93-5.16,1.4-9,5.01-12.3c1.27-1.16,2.33-2.47,2.76-4.17c0.39-1.52,1.24-2.6,2.78-2.95
		c1.52-0.35,1.98-1.56,2.52-2.74c0.32-0.7,0.57-1.99,0.94-2.02c4.85-0.46,4.01-5.97,7.15-7.9c0.69-0.42,0.63-1.11,0.15-1.67
		c-1.81-2.07,0.11-3.78,0.22-5.68c2.17,0.35,0.79,4.05,3.68,3.28c5.53,10.79,11.08,21.57,16.58,32.38c0.99,1.94,2.08,4.13-1.75,4.12
		c-13.01,0.39-26.02,0.11-39.03,0.16C69.76,125.84,69.52,125.53,69.21,125.32z"/>
	<path class="st4" d="M69.21,125.32c11.93,0.04,23.85,0.07,35.78,0.13c1.42,0.01,2.84,0.15,4.26,0.23
		c-1.24,0.64-2.56,0.32-3.85,0.32c-23.85,0.02-47.7,0.01-71.54,0.01c-2.74,0-5.44,0.05-8.14,0.75c-2.85,0.73-5.36-0.25-7.46-2.28
		c3.69-5.32,7.73-10.42,10.98-15.99c5.9-10.1,13.56-18.96,19.57-28.98c4.6-7.65,10.08-14.77,15.17-22.13
		c1.25-1.81,2.63-3.55,3.76-5.43c2.62-4.35,5.5-8.48,9.32-11.89c0.17-0.07,0.35-0.13,0.52-0.2c1.7,0.7,2.68,2,3.11,3.76
		c-0.08,2.28-0.89,4.45-2.16,6.17c-3.84,5.2-6.42,11.3-11.32,15.73c-0.48,0.44-1.1,0.91-1.17,1.52c-0.52,4.67-4.88,7.18-6.27,11.34
		c-6.63,10.12-13.31,20.21-19.86,30.37c-3.43,5.33-6.65,10.79-10.18,16.55C43.02,125.32,56.11,125.32,69.21,125.32z"/>
	<path class="st5" d="M88.13,14.37c3.95,0.03,7.64,1.16,11.27,2.63c0.84,0.34,1.96,1.91,2.84-0.07c3.7,2.91,5.8,6.82,7.03,11.27
		c-0.77-0.29-1.32-0.8-1.57-1.6c-0.2-0.61-0.33-1.36-1.2-1.16c-0.67,0.16-1.15,0.77-1.11,1.43c0.16,2.49-1.31,3.34-3.4,3.9
		c-1.15,0.31-1.92,1.3-2.19,2.53c-0.36,1.64-1.26,2.96-2.87,3.37c-3.01,0.77-1.87,4.43-4.13,5.64c-2.01-2.3-2.28-5.45-3.91-7.93
		c-0.23-0.45-0.5-0.9-0.63-1.38c-0.77-2.81-2.29-3.9-5.04-2.24c-2.71-2.67,0.3-4.08,1.36-5.85c0.61-1.03,1.89-1.32,2.89-1.91
		c3.15-1.86,3.44-3.34,1.43-6.49C88.48,15.89,88.03,15.21,88.13,14.37z"/>
	<path class="st6" d="M19.81,63.52c4.77-0.16,9.48-1.2,14.29-0.81c1.55,0.12,3.12-0.06,4.52,0.81c0.97,1.16,0.34,2.29-0.23,3.25
		c-2.37,4.04-4.4,8.27-7.04,12.16c-0.48,0.38-1.01,0.65-1.61,0.77c-3.32-1.51-6.8,0.04-10.17-0.55c-0.49-1.77,0.27-3.65-0.47-5.39
		c0.01-0.82,0.02-1.64,0.04-2.46C19.94,68.75,18.82,66.04,19.81,63.52z"/>
	<path class="st7" d="M30.02,79.22c0.26-0.22,0.52-0.43,0.78-0.65c2.31,0.76,1.89-1.52,2.57-2.44c1.23-1.67,1.65-4.12,4.46-3.98
		c-1.59,5.15-4.68,9.58-6.97,14.4c-4.04,8.49-8.09,16.98-12.14,25.47c-0.98,2.06-0.15,4.34-0.65,6.5c-1.82,0.07-1.02-1.98-2.11-2.4
		c0.07-4.49,2.43-8.4,3.19-12.72c0.5-1.58,0.49-3.27,0.95-4.86c2.5-5.14,4.71-10.41,7.3-15.5C28.1,81.64,28.75,80.22,30.02,79.22z"
		/>
	<path class="st8" d="M19.81,63.52c-0.33,2.58,0.6,5.28-0.67,7.78c0.02-22.97,0.05-45.94,0.07-68.92c0.54,0.12,0.88,0.34,0.88,1.01
		C19.98,23.43,19.9,43.47,19.81,63.52z"/>
	<path class="st9" d="M20.64,98.89c-0.18,1.61-0.56,3.15-1.5,4.5c-0.01-9.88-0.03-19.75-0.04-29.63c1.35,1.68,0.4,3.65,0.71,5.47
		c1.05,1.15,1.17,2.59,1.16,4.04C20.94,88.47,21.29,93.69,20.64,98.89z"/>
	<path class="st10" d="M89.54,33.76c1.47,2.71,2.91,5.43,3.25,8.57c0.08,4.86-3.99,6.93-6.93,9.35c-9.09,7.5-17.49,15.57-24.33,25.2
		c-0.43,0.61-1.16,1.01-1.76,1.51c0.17-2.72,1.04-5.09,3.37-6.72c0.32-0.22,0.82-0.42,0.9-0.72c2.2-8.24,9.36-13.31,13.1-20.55
		c1.19-2.29,2.04-4.76,3.04-7.15c0.16-0.09,0.32-0.19,0.47-0.28c1.35,0.04,2.47,0.8,3.71,1.18c3.67,1.12,5.06,0,4.93-3.88
		c-0.07-2.19-1.57-4.22-0.71-6.51C88.91,33.46,89.23,33.48,89.54,33.76z"/>
	<path class="st11" d="M37.83,72.15c-2.83,1.39-3.42,4.36-4.73,6.8c-0.42,0.78-1,1.38-1.74,1.27c-0.75-0.11-0.52-1.03-0.57-1.65
		c2.38-5.14,5.94-9.66,7.83-15.05C44.4,53.47,50.16,43.41,55.99,33.4c1.37-2.35,3.01-4.55,4.53-6.82c1.14-0.03,2.3-0.14,3.16,0.86
		C54.74,42.15,46.18,57.09,37.83,72.15z"/>
	<path class="st12" d="M63.68,27.43c-1.11-0.09-2.36,0.37-3.16-0.86c1.97-3.69,4.52-6.97,7.46-9.9c8.21-8.18,22.91-8.6,31.92-0.99
		c-3.94-1.79-8.16-2.44-12.4-2.89c-6.13-0.66-11.57,1.05-15.88,5.59C68.86,21.29,65.44,23.64,63.68,27.43z"/>
	<path class="st13" d="M88.13,14.37c0.36,0.35,0.74,0.69,1.07,1.06c3.55,4.05,2.82,6.11-2.34,8.99c-2.05,1.14-4.87,2.66-3.54,6.13
		c-0.5,4.19-3.16,6.9-6.3,9.3c0,0,0.04,0.2,0.04,0.2c-4.48-4.57-5.59-10.22-4.56-16.21C73.53,17.84,79.99,14.15,88.13,14.37z"/>
	<path class="st14" d="M77.02,39.87c2.1-3.1,4.2-6.2,6.3-9.3c3.21-3.21,3.21-3.21,6.22,3.2c-0.24-0.02-0.48-0.04-0.73-0.04
		c-1.98,3.94-5.69,6.3-8.63,9.35c0,0,0.01,0.18,0.01,0.18C79.13,42.12,78.07,40.99,77.02,39.87z"/>
	<path class="st15" d="M20.64,98.89c-1.73-3.99-0.54-8.19-0.82-12.28c-0.17-2.45-0.02-4.92-0.01-7.38c3.4-1.71,6.8-2.26,10.2-0.01
		C27.22,85.93,24.2,92.54,20.64,98.89z"/>
	<path class="st16" d="M80.18,43.07c1.74-4.17,5.72-6.27,8.63-9.35c0.45,1.74,0.92,3.47,1.34,5.22c0.53,2.23,0.45,4.62-1.19,6.17
		c-1.72,1.63-3.9,0.34-5.79-0.37C82.12,44.33,81.18,43.63,80.18,43.07z"/>
</g>
</svg>
