<?xml version="1.0" encoding="utf-8"?>
<!-- Generator: Adobe Illustrator 24.0.2, SVG Export Plug-In . SVG Version: 6.00 Build 0)  -->
<svg version="1.1" id="Capa_1" xmlns="http://www.w3.org/2000/svg" xmlns:xlink="http://www.w3.org/1999/xlink" x="0px" y="0px"
	 viewBox="0 0 432.4 432.4" style="enable-background:new 0 0 432.4 432.4;" xml:space="preserve">
<style type="text/css">
	.st0{fill:#FFFFFF;}
	.st1{fill:#231F20;}
	.st2{fill:#FFFF20;}
	.st3{stroke:#000000;stroke-width:5;stroke-miterlimit:10;}
</style>
<circle class="st0" cx="216.2" cy="216.2" r="216.2"/>
<g>
	<g>
		<g>
			<g>
				<path class="st1" d="M216.5,114.1c-50.8,0-92.3,41.5-92.3,92.3c0,26.6,11.6,52.1,31.2,69.4c14.6,14.6,13.3,45.8,12.9,46.1
					c0,1.7,0.3,3,1.7,4.3c1,1,2.7,1.7,4,1.7h84.6c1.7,0,3-0.7,4-1.7c1-1,1.7-2.7,1.7-4.3c0-0.3-1.7-31.5,12.9-46.1
					c0.3-0.3,0.7-0.7,1-1c19.3-17.6,30.5-42.5,30.5-68.4C308.7,155.6,267.3,114.1,216.5,114.1z M269.6,267.1c-0.3,0.3-1,1-1,1.3
					c-12.9,13.9-15.3,36.8-15.6,47.8h-73.4c-0.3-11-2.7-34.9-16.6-49.1c-17.6-15.3-27.9-37.5-27.9-61.1c0-44.8,36.2-81,81-81
					s81,36.2,81,81C297.1,229.6,287.2,251.9,269.6,267.1z"/>
				<path class="st1" d="M253,334.2h-73.7c-7.6,0-13.9,6.3-13.9,13.9c0,7.6,6.3,13.9,13.9,13.9h73.4c8-0.3,14.3-6.3,14.3-13.9
					C266.9,340.5,260.6,334.2,253,334.2z M253,350.5h-73.7c-1.3,0-2.7-1-2.7-2.7s1-2.7,2.7-2.7h73.4c1.3,0,2.7,1,2.7,2.7
					S254.3,350.5,253,350.5z"/>
				<path class="st1" d="M242,367.7h-51.8c-7.6,0-13.9,6.3-13.9,13.9s6.3,13.9,13.9,13.9H242c7.6,0,13.9-6.3,13.9-13.9
					C256,373.7,249.7,367.7,242,367.7z M242,384h-51.8c-1.3,0-2.7-1-2.7-2.7c0-1.7,1-2.7,2.7-2.7H242c1.3,0,2.7,1,2.7,2.7
					C244.7,383,243.4,384,242,384z"/>
				<path class="st1" d="M216.1,86.6c3.3,0,5.6-2.7,5.6-5.6V42.4c0-3-2.7-5.6-5.6-5.6s-5.6,2.7-5.6,5.6v38.5
					C210.5,83.9,213.2,86.6,216.1,86.6z"/>
				<path class="st1" d="M310.1,65.3c-2.7-2-6-1-7.6,1.3l-21.2,31.9c-2,2.7-1.3,6.3,1.3,8c1,0.7,2,1,3,1c2,0,3.7-1,4.6-2.7L311.4,73
					C313.4,70.7,312.7,67,310.1,65.3z"/>
				<path class="st1" d="M148.8,106.2c1,0,2-0.3,3-1c2.7-1.7,3.3-5.3,1.7-8L132.8,65c-1.7-2.7-5.3-3.3-8-1.7c-2.7,1.7-3.3,5.3-1.7,8
					l20.6,32.2C145.1,105.5,146.8,106.2,148.8,106.2z"/>
				<path class="st1" d="M108.6,141.4l-33.5-18.3c-2.7-1.3-6.3-0.3-7.6,2.3c-1.7,2.7-0.7,6.3,2.3,7.6l33.5,18.3
					c1,0.3,1.7,0.7,2.7,0.7c2,0,4-1,5-3C112.3,146.3,111.3,142.7,108.6,141.4z"/>
				<path class="st1" d="M365.2,125.4c-1.3-2.7-5-3.7-7.6-2.3l-33.9,18.3c-2.7,1.3-3.7,5-2.3,7.6c1,2,3,3,5,3c1,0,2-0.3,2.7-0.7
					l33.9-18.3C365.5,131.7,366.5,128.1,365.2,125.4z"/>
			</g>
		</g>
	</g>
	<path class="st2" d="M268.6,268.5c-12.9,13.9-15.3,36.8-15.6,47.8h-73.4c-0.3-11-2.7-34.9-16.6-49.1
		c-17.6-15.3-27.9-37.5-27.9-61.1c0-44.8,36.2-81,81-81s81,36.2,81,81c0,23.6-10,45.8-27.5,61.1"/>
	<g>
		<g>
			<path class="st3" d="M230.7,163.5l-4.1-1.1c-0.1,0-0.1,0-0.2,0c-0.1,0-0.2,0-0.4,0.1c-0.2,0.1-0.4,0.3-0.5,0.6l-24.4,84.5
				c-0.1,0.3-0.1,0.5,0,0.7c0.1,0.2,0.3,0.4,0.6,0.5l4.1,1.1c0.2,0,0.3,0.1,0.6-0.1s0.4-0.3,0.5-0.6l24.4-84.5
				c0.1-0.3,0.1-0.5,0-0.7C231.1,163.7,230.9,163.5,230.7,163.5z"/>
			<path class="st3" d="M193.2,233.3c0-0.2-0.1-0.4-0.3-0.7L166.3,206l26.6-26.6c0.2-0.2,0.3-0.4,0.3-0.7c0-0.2-0.1-0.4-0.3-0.7
				l-3.3-3.3c-0.2-0.2-0.4-0.3-0.7-0.3s-0.4,0.1-0.7,0.3l-30.5,30.5c-0.2,0.2-0.3,0.4-0.3,0.7c0,0.2,0.1,0.4,0.3,0.7l30.5,30.5
				c0.2,0.2,0.4,0.3,0.7,0.3s0.4-0.1,0.7-0.3l3.3-3.3C193.1,233.7,193.2,233.5,193.2,233.3z"/>
			<path class="st3" d="M274.9,206c0-0.2-0.1-0.4-0.3-0.7l-30.5-30.5c-0.2-0.2-0.4-0.3-0.7-0.3c-0.2,0-0.4,0.1-0.7,0.3l-3.3,3.3
				c-0.2,0.2-0.3,0.4-0.3,0.7c0,0.2,0.1,0.4,0.3,0.7l26.6,26.6l-26.6,26.6c-0.2,0.2-0.3,0.4-0.3,0.7c0,0.3,0.1,0.4,0.3,0.7l3.3,3.3
				c0.2,0.2,0.4,0.3,0.7,0.3c0.2,0,0.4-0.1,0.7-0.3l30.5-30.5C274.8,206.5,274.9,206.3,274.9,206z"/>
		</g>
	</g>
</g>
</svg>
