<?xml version="1.0" encoding="utf-8"?>
<!-- Generator: Adobe Illustrator 24.0.2, SVG Export Plug-In . SVG Version: 6.00 Build 0)  -->
<svg version="1.1" id="Capa_1" xmlns="http://www.w3.org/2000/svg" xmlns:xlink="http://www.w3.org/1999/xlink" x="0px" y="0px"
	 viewBox="0 0 128 128" style="enable-background:new 0 0 128 128;" xml:space="preserve">
<style type="text/css">
	.st0{fill:#8ED6FB;}
	.st1{fill:#1C78C0;}
</style>
<g>
	<path class="st0" d="M118.15,98.66L66.28,128v-22.86L98.6,87.36L118.15,98.66z M121.7,95.44V34.07l-18.98,10.96v39.44L121.7,95.44
		L121.7,95.44z M9.85,98.66L61.72,128v-22.86L29.4,87.36L9.85,98.66L9.85,98.66z M6.3,95.44V34.07l18.98,10.96v39.44L6.3,95.44
		L6.3,95.44z M8.52,30.1L61.72,0v22.1L27.64,40.85L27.38,41L8.52,30.1z M119.48,30.1L66.28,0v22.1l34.08,18.75l0.26,0.15
		L119.48,30.1z"/>
	<path class="st1" d="M61.72,99.95L29.83,82.41V47.67l31.89,18.41V99.95L61.72,99.95z M66.28,99.95l31.89-17.53V47.67L66.28,66.08
		V99.95L66.28,99.95z M31.99,43.65l32.01-17.61l32.01,17.61L64.01,62.14L31.99,43.65z"/>
</g>
</svg>
